TitilliumWeb-SemiBold.ufo
<glyph name="dollar" format="2">
  <advance width="560"/>
  <unicode hex="0024"/>
  <outline>
    <contour>
      <point x="264" y="-130" type="line"/>
      <point x="318" y="299" type="line"/>
      <point x="245" y="311" type="line"/>
      <point x="190" y="-123" type="line"/>
    </contour>
    <contour>
      <point x="254" y="387" type="line"/>
      <point x="328" y="376" type="line"/>
      <point x="382" y="810" type="line"/>
      <point x="308" y="810" type="line"/>
    </contour>
    <component base="S" xScale="0.971" yScale="0.971" xOffset="16"/>
  </outline>
</glyph>
<glyph name="parenright" format="2">
  <advance width="308"/>
  <unicode hex="0029"/>
  <outline>
    <contour>
      <point x="154" y="-125" type="line"/>
      <point x="204" y="-45"/>
      <point x="270" y="127"/>
      <point x="270" y="301" type="curve" smooth="yes"/>
      <point x="270" y="475"/>
      <point x="204" y="660"/>
      <point x="154" y="750" type="curve"/>
      <point x="27" y="750" type="line"/>
      <point x="68" y="643"/>
      <point x="122" y="446"/>
      <point x="122" y="301" type="curve" smooth="yes"/>
      <point x="122" y="156"/>
      <point x="68" y="-27"/>
      <point x="27" y="-125" type="curve"/>
    </contour>
  </outline>
</glyph>
<glyph name="period" format="2">
  <advance width="256"/>
  <unicode hex="002E"/>
  <outline>
    <contour>
      <point x="56" y="0" type="line"/>
      <point x="200" y="0" type="line"/>
      <point x="200" y="166" type="line"/>
      <point x="56" y="166" type="line"/>
    </contour>
  </outline>
</glyph>
<glyph name="zero" format="2">
  <advance width="560"/>
  <unicode hex="0030"/>
  <outline>
    <contour>
      <point x="280" y="-12" type="curve" smooth="yes"/>
      <point x="444" y="-12"/>
      <point x="536" y="76"/>
      <point x="536" y="326" type="curve" smooth="yes"/>
      <point x="536" y="576"/>
      <point x="444" y="672"/>
      <point x="280" y="672" type="curve" smooth="yes"/>
      <point x="116" y="672"/>
      <point x="24" y="576"/>
      <point x="24" y="326" type="curve" smooth="yes"/>
      <point x="24" y="76"/>
      <point x="116" y="-12"/>
    </contour>
    <contour>
      <point x="281" y="108" type="curve" smooth="yes"/>
      <point x="201" y="108"/>
      <point x="166" y="164"/>
      <point x="166" y="326" type="curve" smooth="yes"/>
      <point x="166" y="498"/>
      <point x="201" y="552"/>
      <point x="281" y="552" type="curve" smooth="yes"/>
      <point x="361" y="552"/>
      <point x="394" y="498"/>
      <point x="394" y="326" type="curve" smooth="yes"/>
      <point x="394" y="164"/>
      <point x="361" y="108"/>
    </contour>
  </outline>
</glyph>
<glyph name="two" format="2">
  <advance width="560"/>
  <unicode hex="0032"/>
  <outline>
    <contour>
      <point x="65" y="0" type="line"/>
      <point x="493" y="0" type="line"/>
      <point x="493" y="120" type="line"/>
      <point x="219" y="120" type="line"/>
      <point x="334" y="224" type="line" smooth="yes"/>
      <point x="443" y="323"/>
      <point x="482" y="381"/>
      <point x="482" y="483" type="curve" smooth="yes"/>
      <point x="482" y="606"/>
      <point x="418" y="672"/>
      <point x="267" y="672" type="curve" smooth="yes"/>
      <point x="194" y="672"/>
      <point x="111" y="655"/>
      <point x="69" y="642" type="curve"/>
      <point x="76" y="535" type="line"/>
      <point x="114" y="541"/>
      <point x="182" y="550"/>
      <point x="232" y="550" type="curve" smooth="yes"/>
      <point x="309" y="550"/>
      <point x="340" y="530"/>
      <point x="340" y="463" type="curve" smooth="yes"/>
      <point x="340" y="399"/>
      <point x="292" y="348"/>
      <point x="206" y="260" type="curve" smooth="yes"/>
      <point x="65" y="117" type="line"/>
    </contour>
  </outline>
</glyph>
<glyph name="five" format="2">
  <advance width="560"/>
  <unicode hex="0035"/>
  <outline>
    <contour>
      <point x="284" y="-12" type="curve" smooth="yes"/>
      <point x="428" y="-12"/>
      <point x="510" y="73"/>
      <point x="510" y="222" type="curve" smooth="yes"/>
      <point x="510" y="361"/>
      <point x="431" y="421"/>
      <point x="296" y="421" type="curve" smooth="yes"/>
      <point x="255" y="421"/>
      <point x="205" y="407"/>
      <point x="178" y="397" type="curve"/>
      <point x="195" y="540" type="line"/>
      <point x="490" y="540" type="line"/>
      <point x="490" y="660" type="line"/>
      <point x="87" y="660" type="line"/>
      <point x="69" y="303" type="line"/>
      <point x="151" y="284" type="line"/>
      <point x="175" y="291"/>
      <point x="225" y="301"/>
      <point x="276" y="301" type="curve" smooth="yes"/>
      <point x="339" y="301"/>
      <point x="368" y="274"/>
      <point x="368" y="207" type="curve" smooth="yes"/>
      <point x="368" y="144"/>
      <point x="332" y="108"/>
      <point x="267" y="108" type="curve" smooth="yes"/>
      <point x="208" y="108"/>
      <point x="117" y="119"/>
      <point x="65" y="127" type="curve"/>
      <point x="50" y="25" type="line"/>
      <point x="106" y="9"/>
      <point x="209" y="-12"/>
    </contour>
  </outline>
</glyph>
<glyph name="six" format="2">
  <advance width="560"/>
  <unicode hex="0036"/>
  <outline>
    <contour>
      <point x="288" y="-12" type="curve" smooth="yes"/>
      <point x="437" y="-12"/>
      <point x="530" y="60"/>
      <point x="530" y="209" type="curve" smooth="yes"/>
      <point x="530" y="358"/>
      <point x="452" y="423"/>
      <point x="303" y="423" type="curve" smooth="yes"/>
      <point x="276" y="423"/>
      <point x="230" y="413"/>
      <point x="177" y="398" type="curve"/>
      <point x="177" y="489"/>
      <point x="219" y="552"/>
      <point x="310" y="552" type="curve" smooth="yes"/>
      <point x="371" y="552"/>
      <point x="452" y="543"/>
      <point x="496" y="537" type="curve"/>
      <point x="508" y="643" type="line" name="hr00"/>
      <point x="459" y="655"/>
      <point x="371" y="672"/>
      <point x="310" y="672" type="curve" smooth="yes"/>
      <point x="141" y="672"/>
      <point x="35" y="579"/>
      <point x="35" y="327" type="curve" smooth="yes"/>
      <point x="35" y="117"/>
      <point x="112" y="-12"/>
    </contour>
    <contour>
      <point x="288" y="108" type="curve" smooth="yes"/>
      <point x="204" y="108"/>
      <point x="176" y="185"/>
      <point x="176" y="281" type="curve"/>
      <point x="202" y="290"/>
      <point x="252" y="303"/>
      <point x="291" y="303" type="curve" smooth="yes"/>
      <point x="353" y="303"/>
      <point x="388" y="271"/>
      <point x="388" y="209" type="curve" smooth="yes"/>
      <point x="388" y="145"/>
      <point x="352" y="108"/>
    </contour>
  </outline>
</glyph>
<glyph name="nine" format="2">
  <advance width="560"/>
  <unicode hex="0039"/>
  <outline>
    <contour>
      <point x="248" y="-12" type="curve" smooth="yes"/>
      <point x="417" y="-12"/>
      <point x="523" y="72"/>
      <point x="523" y="334" type="curve" smooth="yes"/>
      <point x="523" y="543"/>
      <point x="444" y="672"/>
      <point x="270" y="672" type="curve" smooth="yes"/>
      <point x="121" y="672"/>
      <point x="28" y="590"/>
      <point x="28" y="451" type="curve" smooth="yes"/>
      <point x="28" y="308"/>
      <point x="112" y="240"/>
      <point x="255" y="240" type="curve" smooth="yes"/>
      <point x="283" y="240"/>
      <point x="329" y="252"/>
      <point x="381" y="270" type="curve"/>
      <point x="381" y="169"/>
      <point x="339" y="108"/>
      <point x="248" y="108" type="curve" smooth="yes"/>
      <point x="187" y="108"/>
      <point x="106" y="117"/>
      <point x="62" y="123" type="curve"/>
      <point x="50" y="17" type="line" name="hr00"/>
      <point x="99" y="5"/>
      <point x="187" y="-12"/>
    </contour>
    <contour>
      <point x="267" y="360" type="curve" smooth="yes"/>
      <point x="206" y="360"/>
      <point x="170" y="390"/>
      <point x="170" y="451" type="curve" smooth="yes"/>
      <point x="170" y="515"/>
      <point x="206" y="552"/>
      <point x="270" y="552" type="curve" smooth="yes"/>
      <point x="354" y="552"/>
      <point x="382" y="476"/>
      <point x="382" y="383" type="curve"/>
      <point x="356" y="373"/>
      <point x="306" y="360"/>
    </contour>
  </outline>
</glyph>
<glyph name="question" format="2">
  <advance width="437"/>
  <unicode hex="003F"/>
  <outline>
    <contour>
      <point x="141" y="217" type="curve"/>
      <point x="248" y="217" type="line"/>
      <point x="248" y="248" type="line" smooth="yes"/>
      <point x="248" y="276"/>
      <point x="252" y="295"/>
      <point x="323" y="349" type="curve" smooth="yes"/>
      <point x="392" y="401"/>
      <point x="405" y="437"/>
      <point x="405" y="528" type="curve" smooth="yes"/>
      <point x="405" y="643"/>
      <point x="344" y="692"/>
      <point x="200" y="692" type="curve" smooth="yes"/>
      <point x="139" y="692"/>
      <point x="67" y="672"/>
      <point x="30" y="657" type="curve"/>
      <point x="37" y="556" type="line"/>
      <point x="70" y="563"/>
      <point x="132" y="572"/>
      <point x="181" y="572" type="curve" smooth="yes"/>
      <point x="248" y="572"/>
      <point x="266" y="547"/>
      <point x="266" y="513" type="curve" smooth="yes"/>
      <point x="266" y="476"/>
      <point x="256" y="461"/>
      <point x="182" y="402" type="curve" smooth="yes"/>
      <point x="129" y="359"/>
      <point x="110" y="334"/>
      <point x="110" y="308" type="curve" smooth="yes"/>
      <point x="110" y="266"/>
      <point x="128" y="232"/>
    </contour>
    <contour>
      <point x="119" y="0" type="line"/>
      <point x="263" y="0" type="line"/>
      <point x="263" y="161" type="line"/>
      <point x="119" y="161" type="line"/>
    </contour>
  </outline>
</glyph>
<glyph name="A" format="2">
  <advance width="602"/>
  <unicode hex="0041"/>
  <outline>
    <contour>
      <point x="17" y="0" type="line"/>
      <point x="155" y="0" type="line"/>
      <point x="182" y="123" type="line"/>
      <point x="420" y="123" type="line"/>
      <point x="447" y="0" type="line"/>
      <point x="585" y="0" type="line"/>
      <point x="432" y="680" type="line"/>
      <point x="170" y="680" type="line"/>
    </contour>
    <contour>
      <point x="208" y="243" type="line"/>
      <point x="277" y="566" type="line"/>
      <point x="325" y="566" type="line"/>
      <point x="394" y="243" type="line"/>
    </contour>
  </outline>
</glyph>
<glyph name="F" format="2">
  <advance width="531"/>
  <unicode hex="0046"/>
  <outline>
    <contour>
      <point x="74" y="0" type="line"/>
      <point x="212" y="0" type="line"/>
      <point x="212" y="240" type="line"/>
      <point x="454" y="240" type="line"/>
      <point x="454" y="360" type="line"/>
      <point x="212" y="360" type="line"/>
      <point x="212" y="560" type="line"/>
      <point x="508" y="560" type="line"/>
      <point x="508" y="680" type="line"/>
      <point x="74" y="680" type="line"/>
    </contour>
  </outline>
</glyph>
<glyph name="G" format="2">
  <advance width="611"/>
  <unicode hex="0047"/>
  <anchor x="322" y="0" name="bottom"/>
  <outline>
    <contour>
      <point x="323" y="-12" type="curve" smooth="yes"/>
      <point x="388" y="-12"/>
      <point x="494" y="1"/>
      <point x="555" y="11" type="curve"/>
      <point x="555" y="364" type="line"/>
      <point x="357" y="364" type="line"/>
      <point x="357" y="244" type="line"/>
      <point x="419" y="244" type="line"/>
      <point x="419" y="112" type="line"/>
      <point x="401" y="110"/>
      <point x="366" y="108"/>
      <point x="336" y="108" type="curve" smooth="yes"/>
      <point x="212" y="108"/>
      <point x="187" y="159"/>
      <point x="187" y="340" type="curve" smooth="yes"/>
      <point x="187" y="531"/>
      <point x="222" y="570"/>
      <point x="340" y="570" type="curve" smooth="yes"/>
      <point x="406" y="570"/>
      <point x="499" y="563"/>
      <point x="551" y="557" type="curve"/>
      <point x="555" y="664" type="line"/>
      <point x="498" y="676"/>
      <point x="395" y="692"/>
      <point x="318" y="692" type="curve" smooth="yes"/>
      <point x="117" y="692"/>
      <point x="45" y="588"/>
      <point x="45" y="340" type="curve" smooth="yes"/>
      <point x="45" y="112"/>
      <point x="101" y="-12"/>
    </contour>
  </outline>
</glyph>
<glyph name="K" format="2">
  <advance width="593"/>
  <unicode hex="004B"/>
  <anchor x="301" y="0" name="bottom"/>
  <outline>
    <contour>
      <point x="74" y="0" type="line"/>
      <point x="212" y="0" type="line"/>
      <point x="212" y="261" type="line"/>
      <point x="304" y="271" type="line"/>
      <point x="418" y="0" type="line"/>
      <point x="577" y="0" type="line"/>
      <point x="425" y="339" type="line"/>
      <point x="573" y="680" type="line"/>
      <point x="416" y="680" type="line"/>
      <point x="304" y="391" type="line"/>
      <point x="212" y="381" type="line"/>
      <point x="212" y="680" type="line"/>
      <point x="74" y="680" type="line"/>
    </contour>
  </outline>
</glyph>
<glyph name="L" format="2">
  <advance width="472"/>
  <unicode hex="004C"/>
  <outline>
    <contour>
      <point x="74" y="0" type="line"/>
      <point x="461" y="0" type="line"/>
      <point x="461" y="122" type="line"/>
      <point x="212" y="122" type="line"/>
      <point x="212" y="680" type="line"/>
      <point x="74" y="680" type="line"/>
    </contour>
  </outline>
</glyph>
<glyph name="M" format="2">
  <advance width="858"/>
  <unicode hex="004D"/>
  <outline>
    <contour>
      <point x="74" y="0" type="line"/>
      <point x="212" y="0" type="line"/>
      <point x="212" y="526" type="line"/>
      <point x="227" y="526" type="line"/>
      <point x="360" y="30" type="line"/>
      <point x="498" y="30" type="line"/>
      <point x="631" y="526" type="line"/>
      <point x="646" y="526" type="line"/>
      <point x="646" y="0" type="line"/>
      <point x="784" y="0" type="line"/>
      <point x="784" y="680" type="line"/>
      <point x="549" y="680" type="line"/>
      <point x="429" y="184" type="line"/>
      <point x="309" y="680" type="line"/>
      <point x="74" y="680" type="line"/>
    </contour>
  </outline>
</glyph>
<glyph name="R" format="2">
  <advance width="620"/>
  <unicode hex="0052"/>
  <outline>
    <contour>
      <point x="74" y="0" type="line"/>
      <point x="212" y="0" type="line"/>
      <point x="212" y="228" type="line"/>
      <point x="345" y="228" type="line"/>
      <point x="424" y="0" type="line"/>
      <point x="575" y="0" type="line"/>
      <point x="478" y="260" type="line"/>
      <point x="540" y="299"/>
      <point x="578" y="362"/>
      <point x="578" y="456" type="curve" smooth="yes"/>
      <point x="578" y="611"/>
      <point x="493" y="680"/>
      <point x="338" y="680" type="curve" smooth="yes"/>
      <point x="74" y="680" type="line"/>
    </contour>
    <contour>
      <point x="212" y="346" type="line"/>
      <point x="212" y="562" type="line"/>
      <point x="338" y="562" type="line" smooth="yes"/>
      <point x="404" y="562"/>
      <point x="437" y="519"/>
      <point x="437" y="454" type="curve" smooth="yes"/>
      <point x="437" y="394"/>
      <point x="409" y="346"/>
      <point x="340" y="346" type="curve" smooth="yes"/>
    </contour>
  </outline>
</glyph>
<glyph name="T" format="2">
  <advance width="526"/>
  <unicode hex="0054"/>
  <anchor x="264" y="0" name="bottom"/>
  <outline>
    <contour>
      <point x="195" y="0" type="line"/>
      <point x="333" y="0" type="line"/>
      <point x="333" y="558" type="line"/>
      <point x="513" y="558" type="line"/>
      <point x="513" y="680" type="line"/>
      <point x="13" y="680" type="line"/>
      <point x="13" y="558" type="line"/>
      <point x="195" y="558" type="line"/>
    </contour>
  </outline>
</glyph>
<glyph name="U" format="2">
  <advance width="654"/>
  <unicode hex="0055"/>
  <outline>
    <contour>
      <point x="327" y="-12" type="curve" smooth="yes"/>
      <point x="497" y="-12"/>
      <point x="586" y="60"/>
      <point x="586" y="230" type="curve" smooth="yes"/>
      <point x="586" y="680" type="line"/>
      <point x="448" y="680" type="line"/>
      <point x="448" y="227" type="line" smooth="yes"/>
      <point x="448" y="147"/>
      <point x="408" y="108"/>
      <point x="327" y="108" type="curve" smooth="yes"/>
      <point x="246" y="108"/>
      <point x="206" y="146"/>
      <point x="206" y="227" type="curve" smooth="yes"/>
      <point x="206" y="680" type="line"/>
      <point x="68" y="680" type="line"/>
      <point x="68" y="230" type="line" smooth="yes"/>
      <point x="68" y="60"/>
      <point x="157" y="-12"/>
    </contour>
  </outline>
</glyph>
<glyph name="Y" format="2">
  <advance width="557"/>
  <unicode hex="0059"/>
  <outline>
    <contour>
      <point x="210" y="0" type="line"/>
      <point x="348" y="0" type="line"/>
      <point x="348" y="275" type="line"/>
      <point x="556" y="680" type="line"/>
      <point x="403" y="680" type="line"/>
      <point x="278" y="409" type="line"/>
      <point x="153" y="680" type="line"/>
      <point x="0" y="680" type="line"/>
      <point x="210" y="275" type="line"/>
    </contour>
  </outline>
</glyph>
<glyph name="bracketright" format="2">
  <advance width="355"/>
  <unicode hex="005D"/>
  <outline>
    <contour>
      <point x="287" y="-123" type="line"/>
      <point x="287" y="749" type="line"/>
      <point x="35" y="749" type="line"/>
      <point x="35" y="629" type="line"/>
      <point x="150" y="629" type="line"/>
      <point x="150" y="-3" type="line"/>
      <point x="35" y="-3" type="line"/>
      <point x="35" y="-123" type="line"/>
    </contour>
  </outline>
</glyph>
<glyph name="asciicircum" format="2">
  <advance width="560"/>
  <unicode hex="005E"/>
  <outline>
    <contour>
      <point x="21" y="313" type="line"/>
      <point x="161" y="313" type="line"/>
      <point x="274" y="530" type="line"/>
      <point x="383" y="313" type="line"/>
      <point x="523" y="313" type="line"/>
      <point x="329" y="660" type="line"/>
      <point x="215" y="660" type="line"/>
    </contour>
  </outline>
</glyph>
<glyph name="d" format="2">
  <advance width="549"/>
  <unicode hex="0064"/>
  <outline>
    <contour>
      <point x="233" y="-12" type="curve" smooth="yes"/>
      <point x="270" y="-12"/>
      <point x="324" y="7"/>
      <point x="354" y="21" type="curve"/>
      <point x="354" y="0" type="line"/>
      <point x="487" y="0" type="line"/>
      <point x="487" y="700" type="line"/>
      <point x="353" y="700" type="line"/>
      <point x="353" y="498" type="line"/>
      <point x="322" y="504"/>
      <point x="272" y="512"/>
      <point x="245" y="512" type="curve" smooth="yes"/>
      <point x="109" y="512"/>
      <point x="38" y="435"/>
      <point x="38" y="252" type="curve" smooth="yes"/>
      <point x="38" y="76"/>
      <point x="82" y="-12"/>
    </contour>
    <contour>
      <point x="256" y="108" type="curve" smooth="yes"/>
      <point x="193" y="108"/>
      <point x="174" y="150"/>
      <point x="174" y="252" type="curve" smooth="yes"/>
      <point x="174" y="353"/>
      <point x="205" y="396"/>
      <point x="255" y="396" type="curve" smooth="yes"/>
      <point x="286" y="396"/>
      <point x="329" y="390"/>
      <point x="353" y="386" type="curve"/>
      <point x="353" y="123" type="line"/>
      <point x="332" y="117"/>
      <point x="290" y="108"/>
    </contour>
  </outline>
</glyph>
<glyph name="j" format="2">
  <advance width="259"/>
  <unicode hex="006A"/>
  <outline>
    <contour>
      <point x="19" y="-230" type="line"/>
      <point x="158" y="-160"/>
      <point x="197" y="-116"/>
      <point x="197" y="23" type="curve" smooth="yes"/>
      <point x="197" y="500" type="line"/>
      <point x="63" y="500" type="line"/>
      <point x="63" y="24" type="line" smooth="yes"/>
      <point x="63" y="-61"/>
      <point x="48" y="-77"/>
      <point x="-34" y="-131" type="curve"/>
    </contour>
    <contour>
      <point x="63" y="564" type="line"/>
      <point x="197" y="564" type="line"/>
      <point x="197" y="700" type="line"/>
      <point x="63" y="700" type="line"/>
    </contour>
  </outline>
</glyph>
<glyph name="k" format="2">
  <advance width="515"/>
  <unicode hex="006B"/>
  <anchor x="263" y="0" name="bottom"/>
  <outline>
    <contour>
      <point x="62" y="0" type="line"/>
      <point x="196" y="0" type="line"/>
      <point x="196" y="186" type="line"/>
      <point x="251" y="195" type="line"/>
      <point x="352" y="0" type="line"/>
      <point x="503" y="0" type="line"/>
      <point x="366" y="263" type="line"/>
      <point x="496" y="500" type="line"/>
      <point x="346" y="500" type="line"/>
      <point x="247" y="311" type="line"/>
      <point x="196" y="302" type="line"/>
      <point x="196" y="700" type="line"/>
      <point x="62" y="700" type="line"/>
    </contour>
  </outline>
</glyph>
<glyph name="n" format="2">
  <advance width="553"/>
  <unicode hex="006E"/>
  <anchor x="273" y="0" name="bottom"/>
  <outline>
    <contour>
      <point x="62" y="0" type="line"/>
      <point x="196" y="0" type="line"/>
      <point x="196" y="374" type="line"/>
      <point x="215" y="382"/>
      <point x="253" y="392"/>
      <point x="287" y="392" type="curve" smooth="yes"/>
      <point x="352" y="392"/>
      <point x="362" y="343"/>
      <point x="362" y="267" type="curve" smooth="yes"/>
      <point x="362" y="0" type="line"/>
      <point x="496" y="0" type="line"/>
      <point x="496" y="271" type="line" smooth="yes"/>
      <point x="496" y="424"/>
      <point x="460" y="512"/>
      <point x="320" y="512" type="curve" smooth="yes"/>
      <point x="278" y="512"/>
      <point x="224" y="489"/>
      <point x="195" y="472" type="curve"/>
      <point x="195" y="500" type="line"/>
      <point x="62" y="500" type="line"/>
    </contour>
  </outline>
</glyph>
<glyph name="r" format="2">
  <advance width="372"/>
  <unicode hex="0072"/>
  <outline>
    <contour>
      <point x="62" y="0" type="line"/>
      <point x="196" y="0" type="line"/>
      <point x="196" y="335" type="line"/>
      <point x="227" y="346"/>
      <point x="291" y="365"/>
      <point x="355" y="377" type="curve"/>
      <point x="355" y="512" type="line"/>
      <point x="300" y="501"/>
      <point x="231" y="469"/>
      <point x="195" y="447" type="curve"/>
      <point x="195" y="500" type="line"/>
      <point x="62" y="500" type="line"/>
    </contour>
  </outline>
</glyph>
<glyph name="t" format="2">
  <advance width="364"/>
  <unicode hex="0074"/>
  <anchor x="193" y="0" name="bottom"/>
  <outline>
    <contour>
      <point x="238" y="-12" type="curve" smooth="yes"/>
      <point x="264" y="-12"/>
      <point x="311" y="-3"/>
      <point x="340" y="3" type="curve"/>
      <point x="334" y="110" type="line"/>
      <point x="313" y="109"/>
      <point x="278" y="108"/>
      <point x="258" y="108" type="curve" smooth="yes"/>
      <point x="216" y="108"/>
      <point x="216" y="131"/>
      <point x="216" y="181" type="curve" smooth="yes"/>
      <point x="216" y="386" type="line"/>
      <point x="339" y="386" type="line"/>
      <point x="339" y="500" type="line"/>
      <point x="216" y="500" type="line"/>
      <point x="216" y="639" type="line"/>
      <point x="82" y="639" type="line"/>
      <point x="82" y="500" type="line"/>
      <point x="23" y="500" type="line"/>
      <point x="23" y="386" type="line"/>
      <point x="82" y="386" type="line"/>
      <point x="82" y="178" type="line" smooth="yes"/>
      <point x="82" y="34"/>
      <point x="117" y="-12"/>
    </contour>
  </outline>
</glyph>
<glyph name="y" format="2">
  <advance width="500"/>
  <unicode hex="0079"/>
  <outline>
    <contour>
      <point x="178" y="-210" type="line"/>
      <point x="309" y="-210" type="line"/>
      <point x="485" y="500" type="line"/>
      <point x="353" y="500" type="line"/>
      <point x="262" y="114" type="line"/>
      <point x="239" y="114" type="line"/>
      <point x="148" y="500" type="line"/>
      <point x="16" y="500" type="line"/>
      <point x="139" y="0" type="line"/>
      <point x="233" y="0" type="line"/>
    </contour>
  </outline>
</glyph>
<glyph name="z" format="2">
  <advance width="454"/>
  <unicode hex="007A"/>
  <outline>
    <contour>
      <point x="41" y="0" type="line"/>
      <point x="412" y="0" type="line"/>
      <point x="412" y="120" type="line"/>
      <point x="202" y="120" type="line"/>
      <point x="412" y="380" type="line"/>
      <point x="412" y="500" type="line"/>
      <point x="41" y="500" type="line"/>
      <point x="41" y="380" type="line"/>
      <point x="251" y="380" type="line"/>
      <point x="41" y="120" type="line"/>
    </contour>
  </outline>
</glyph>
<glyph name="braceleft" format="2">
  <advance width="361"/>
  <unicode hex="007B"/>
  <outline>
    <contour>
      <point x="323" y="-134" type="curve"/>
      <point x="323" y="-20" type="line"/>
      <point x="262" y="-15"/>
      <point x="252" y="15"/>
      <point x="252" y="55" type="curve" smooth="yes"/>
      <point x="252" y="72"/>
      <point x="254" y="95"/>
      <point x="256" y="117" type="curve"/>
      <point x="257" y="138"/>
      <point x="259" y="158"/>
      <point x="259" y="172" type="curve" smooth="yes"/>
      <point x="259" y="252"/>
      <point x="244" y="290"/>
      <point x="146" y="314" type="curve"/>
      <point x="244" y="338"/>
      <point x="258" y="368"/>
      <point x="258" y="448" type="curve" smooth="yes"/>
      <point x="258" y="462"/>
      <point x="256" y="485"/>
      <point x="255" y="508" type="curve"/>
      <point x="253" y="533"/>
      <point x="251" y="559"/>
      <point x="251" y="576" type="curve" smooth="yes"/>
      <point x="251" y="616"/>
      <point x="264" y="642"/>
      <point x="325" y="647" type="curve"/>
      <point x="325" y="761" type="line"/>
      <point x="177" y="756"/>
      <point x="121" y="715"/>
      <point x="121" y="586" type="curve" smooth="yes"/>
      <point x="121" y="566"/>
      <point x="123" y="539"/>
      <point x="125" y="514" type="curve" smooth="yes"/>
      <point x="126" y="492"/>
      <point x="128" y="472"/>
      <point x="128" y="459" type="curve" smooth="yes"/>
      <point x="128" y="413"/>
      <point x="93" y="383"/>
      <point x="16" y="365" type="curve"/>
      <point x="16" y="261" type="line"/>
      <point x="92" y="241"/>
      <point x="128" y="205"/>
      <point x="128" y="159" type="curve" smooth="yes"/>
      <point x="128" y="148"/>
      <point x="127" y="130"/>
      <point x="125" y="111" type="curve" smooth="yes"/>
      <point x="123" y="87"/>
      <point x="121" y="60"/>
      <point x="121" y="38" type="curve" smooth="yes"/>
      <point x="121" y="-81"/>
      <point x="175" y="-129"/>
    </contour>
  </outline>
</glyph>
<glyph name="braceright" format="2">
  <advance width="361"/>
  <unicode hex="007D"/>
  <outline>
    <contour>
      <point x="38" y="-134" type="line"/>
      <point x="186" y="-129"/>
      <point x="240" y="-81"/>
      <point x="240" y="38" type="curve" smooth="yes"/>
      <point x="240" y="60"/>
      <point x="238" y="87"/>
      <point x="236" y="111" type="curve" smooth="yes"/>
      <point x="234" y="130"/>
      <point x="233" y="148"/>
      <point x="233" y="159" type="curve" smooth="yes"/>
      <point x="233" y="205"/>
      <point x="269" y="241"/>
      <point x="345" y="261" type="curve"/>
      <point x="345" y="365" type="line"/>
      <point x="268" y="383"/>
      <point x="233" y="413"/>
      <point x="233" y="459" type="curve" smooth="yes"/>
      <point x="233" y="472"/>
      <point x="235" y="492"/>
      <point x="236" y="514" type="curve" smooth="yes"/>
      <point x="238" y="539"/>
      <point x="240" y="566"/>
      <point x="240" y="586" type="curve" smooth="yes"/>
      <point x="240" y="715"/>
      <point x="184" y="756"/>
      <point x="36" y="761" type="curve"/>
      <point x="36" y="647" type="line"/>
      <point x="97" y="642"/>
      <point x="110" y="616"/>
      <point x="110" y="576" type="curve" smooth="yes"/>
      <point x="110" y="559"/>
      <point x="108" y="533"/>
      <point x="106" y="508" type="curve" smooth="yes"/>
      <point x="105" y="485"/>
      <point x="103" y="462"/>
      <point x="103" y="448" type="curve" smooth="yes"/>
      <point x="103" y="368"/>
      <point x="117" y="338"/>
      <point x="215" y="314" type="curve"/>
      <point x="117" y="290"/>
      <point x="102" y="252"/>
      <point x="102" y="172" type="curve" smooth="yes"/>
      <point x="102" y="158"/>
      <point x="104" y="138"/>
      <point x="105" y="117" type="curve" smooth="yes"/>
      <point x="107" y="95"/>
      <point x="109" y="72"/>
      <point x="109" y="55" type="curve" smooth="yes"/>
      <point x="109" y="15"/>
      <point x="99" y="-15"/>
      <point x="38" y="-20" type="curve"/>
    </contour>
  </outline>
</glyph>
<glyph name="exclamdown" format="2">
  <advance width="264"/>
  <unicode hex="00A1"/>
  <outline>
    <contour>
      <point x="191" y="250" type="line"/>
      <point x="73" y="250" type="line"/>
      <point x="59" y="-180" type="line"/>
      <point x="204" y="-180" type="line"/>
    </contour>
    <contour>
      <point x="204" y="500" type="line"/>
      <point x="60" y="500" type="line"/>
      <point x="60" y="339" type="line"/>
      <point x="204" y="339" type="line"/>
    </contour>
  </outline>
</glyph>
<glyph name="logicalnot" format="2">
  <advance width="560"/>
  <unicode hex="00AC"/>
  <outline>
    <contour>
      <point x="373" y="104" type="line"/>
      <point x="493" y="104" type="line"/>
      <point x="493" y="358" type="line"/>
      <point x="57" y="358" type="line"/>
      <point x="57" y="238" type="line"/>
      <point x="373" y="238" type="line"/>
    </contour>
  </outline>
</glyph>
<glyph name="macron" format="2">
  <advance width="268"/>
  <unicode hex="00AF"/>
  <outline>
    <contour>
      <point x="-5" y="597" type="line"/>
      <point x="282" y="597" type="line"/>
      <point x="282" y="697" type="line"/>
      <point x="-5" y="697" type="line"/>
    </contour>
  </outline>
</glyph>
<glyph name="threesuperior" format="2">
  <advance width="280"/>
  <unicode hex="00B3"/>
  <outline>
    <contour>
      <point x="137" y="467" type="curve" smooth="yes"/>
      <point x="217" y="467"/>
      <point x="259" y="500"/>
      <point x="259" y="572" type="curve" smooth="yes"/>
      <point x="259" y="611"/>
      <point x="247" y="632"/>
      <point x="224" y="642" type="curve"/>
      <point x="243" y="653"/>
      <point x="253" y="678"/>
      <point x="253" y="710" type="curve" smooth="yes"/>
      <point x="253" y="774"/>
      <point x="212" y="801"/>
      <point x="130" y="801" type="curve" smooth="yes"/>
      <point x="102" y="801"/>
      <point x="56" y="798"/>
      <point x="24" y="795" type="curve"/>
      <point x="30" y="701" type="line"/>
      <point x="50" y="703"/>
      <point x="89" y="706"/>
      <point x="110" y="706" type="curve" smooth="yes"/>
      <point x="131" y="706"/>
      <point x="141" y="703"/>
      <point x="141" y="691" type="curve" smooth="yes"/>
      <point x="141" y="681"/>
      <point x="134" y="677"/>
      <point x="121" y="677" type="curve" smooth="yes"/>
      <point x="57" y="677" type="line"/>
      <point x="57" y="592" type="line"/>
      <point x="123" y="592" type="line" smooth="yes"/>
      <point x="141" y="592"/>
      <point x="149" y="590"/>
      <point x="149" y="578" type="curve" smooth="yes"/>
      <point x="149" y="566"/>
      <point x="141" y="562"/>
      <point x="117" y="562" type="curve" smooth="yes"/>
      <point x="97" y="562"/>
      <point x="52" y="565"/>
      <point x="26" y="568" type="curve"/>
      <point x="20" y="475" type="line"/>
      <point x="51" y="472"/>
      <point x="106" y="467"/>
    </contour>
  </outline>
</glyph>
<glyph name="guillemotright" format="2">
  <advance width="603"/>
  <unicode hex="00BB"/>
  <outline>
    <contour>
      <point x="338" y="23" type="line"/>
      <point x="561" y="194" type="line"/>
      <point x="561" y="290" type="line"/>
      <point x="338" y="454" type="line"/>
      <point x="338" y="319" type="line"/>
      <point x="447" y="244" type="line"/>
      <point x="338" y="158" type="line"/>
    </contour>
    <contour>
      <point x="55" y="23" type="line"/>
      <point x="278" y="194" type="line"/>
      <point x="278" y="290" type="line"/>
      <point x="55" y="454" type="line"/>
      <point x="55" y="319" type="line"/>
      <point x="164" y="244" type="line"/>
      <point x="55" y="158" type="line"/>
    </contour>
  </outline>
</glyph>
<glyph name="questiondown" format="2">
  <advance width="433"/>
  <unicode hex="00BF"/>
  <outline>
    <contour>
      <point x="293" y="283" type="curve"/>
      <point x="186" y="283" type="line"/>
      <point x="186" y="252" type="line" smooth="yes"/>
      <point x="186" y="224"/>
      <point x="182" y="205"/>
      <point x="111" y="151" type="curve" smooth="yes"/>
      <point x="42" y="99"/>
      <point x="29" y="63"/>
      <point x="29" y="-28" type="curve" smooth="yes"/>
      <point x="29" y="-143"/>
      <point x="90" y="-192"/>
      <point x="234" y="-192" type="curve" smooth="yes"/>
      <point x="295" y="-192"/>
      <point x="367" y="-172"/>
      <point x="404" y="-157" type="curve"/>
      <point x="397" y="-56" type="line"/>
      <point x="364" y="-63"/>
      <point x="302" y="-72"/>
      <point x="253" y="-72" type="curve" smooth="yes"/>
      <point x="186" y="-72"/>
      <point x="168" y="-47"/>
      <point x="168" y="-13" type="curve" smooth="yes"/>
      <point x="168" y="24"/>
      <point x="178" y="39"/>
      <point x="252" y="98" type="curve" smooth="yes"/>
      <point x="305" y="141"/>
      <point x="324" y="166"/>
      <point x="324" y="192" type="curve" smooth="yes"/>
      <point x="324" y="234"/>
      <point x="306" y="268"/>
    </contour>
    <contour>
      <point x="315" y="500" type="line"/>
      <point x="171" y="500" type="line"/>
      <point x="171" y="339" type="line"/>
      <point x="315" y="339" type="line"/>
    </contour>
  </outline>
</glyph>
<glyph name="Oslash" format="2">
  <advance width="652"/>
  <unicode hex="00D8"/>
  <outline>
    <contour>
      <point x="172" y="-127" type="line"/>
      <point x="420" y="405" type="line"/>
      <point x="324" y="458" type="line"/>
      <point x="74" y="-78" type="line"/>
    </contour>
    <contour>
      <point x="349" y="253" type="line"/>
      <point x="588" y="767" type="line"/>
      <point x="488" y="810" type="line"/>
      <point x="252" y="304" type="line"/>
    </contour>
    <component base="O"/>
  </outline>
</glyph>
<glyph name="ae" format="2">
  <advance width="784"/>
  <unicode hex="00E6"/>
  <outline>
    <contour>
      <point x="178" y="-12" type="curve" smooth="yes"/>
      <point x="258" y="-12"/>
      <point x="313" y="9"/>
      <point x="372" y="36" type="curve"/>
      <point x="407" y="3"/>
      <point x="457" y="-12"/>
      <point x="525" y="-12" type="curve" smooth="yes"/>
      <point x="593" y="-12"/>
      <point x="684" y="4"/>
      <point x="733" y="16" type="curve"/>
      <point x="731" y="120" type="line"/>
      <point x="687" y="116"/>
      <point x="606" y="111"/>
      <point x="546" y="111" type="curve" smooth="yes" name="hr00"/>
      <point x="474" y="111"/>
      <point x="446" y="135"/>
      <point x="445" y="192" type="curve"/>
      <point x="739" y="192" type="line"/>
      <point x="749" y="286" type="line"/>
      <point x="749" y="437"/>
      <point x="678" y="511"/>
      <point x="531" y="511" type="curve" smooth="yes"/>
      <point x="477" y="511"/>
      <point x="432" y="498"/>
      <point x="398" y="474" type="curve"/>
      <point x="368" y="500"/>
      <point x="324" y="511"/>
      <point x="269" y="511" type="curve" smooth="yes"/>
      <point x="216" y="511"/>
      <point x="120" y="498"/>
      <point x="63" y="489" type="curve"/>
      <point x="67" y="372" type="line"/>
      <point x="119" y="377"/>
      <point x="207" y="383"/>
      <point x="261" y="383" type="curve" smooth="yes"/>
      <point x="290" y="383"/>
      <point x="311" y="365"/>
      <point x="311" y="338" type="curve" smooth="yes"/>
      <point x="311" y="313" type="line"/>
      <point x="203" y="306" type="line" smooth="yes"/>
      <point x="95" y="300"/>
      <point x="29" y="264"/>
      <point x="29" y="152" type="curve" smooth="yes"/>
      <point x="29" y="52"/>
      <point x="79" y="-12"/>
    </contour>
    <contour>
      <point x="205" y="103" type="curve" smooth="yes"/>
      <point x="177" y="103"/>
      <point x="164" y="121"/>
      <point x="164" y="156" type="curve" smooth="yes"/>
      <point x="164" y="192"/>
      <point x="185" y="205"/>
      <point x="220" y="207" type="curve" smooth="yes"/>
      <point x="310" y="211" type="line"/>
      <point x="310" y="201"/>
      <point x="311" y="137"/>
      <point x="311" y="118" type="curve"/>
      <point x="283" y="112"/>
      <point x="235" y="103"/>
    </contour>
    <contour>
      <point x="445" y="295" type="line"/>
      <point x="445" y="361"/>
      <point x="466" y="392"/>
      <point x="531" y="392" type="curve" smooth="yes"/>
      <point x="594" y="392"/>
      <point x="617" y="366"/>
      <point x="617" y="295" type="curve"/>
    </contour>
  </outline>
</glyph>
<glyph name="divide" format="2">
  <advance width="560"/>
  <unicode hex="00F7"/>
  <outline>
    <contour>
      <point x="50" y="191" type="line"/>
      <point x="510" y="191" type="line"/>
      <point x="510" y="311" type="line"/>
      <point x="50" y="311" type="line"/>
    </contour>
    <contour>
      <point x="213" y="17" type="line"/>
      <point x="345" y="17" type="line"/>
      <point x="345" y="149" type="line"/>
      <point x="213" y="149" type="line"/>
    </contour>
    <contour>
      <point x="213" y="352" type="line"/>
      <point x="345" y="352" type="line"/>
      <point x="345" y="484" type="line"/>
      <point x="213" y="484" type="line"/>
    </contour>
  </outline>
</glyph>
<glyph name="oslash" format="2">
  <advance width="532"/>
  <unicode hex="00F8"/>
  <outline>
    <contour>
      <point x="270" y="154" type="line"/>
      <point x="443" y="577" type="line"/>
      <point x="362" y="607" type="line"/>
      <point x="204" y="222" type="line"/>
    </contour>
    <contour>
      <point x="162" y="-108" type="line"/>
      <point x="321" y="278" type="line"/>
      <point x="247" y="327" type="line"/>
      <point x="81" y="-78" type="line"/>
    </contour>
    <component base="o"/>
  </outline>
</glyph>
<glyph name="thorn" format="2">
  <advance width="544"/>
  <unicode hex="00FE"/>
  <outline>
    <contour>
      <point x="62" y="-210" type="line"/>
      <point x="196" y="-210" type="line"/>
      <point x="196" y="-4" type="line"/>
      <point x="216" y="-7"/>
      <point x="252" y="-12"/>
      <point x="279" y="-12" type="curve" smooth="yes"/>
      <point x="432" y="-12"/>
      <point x="506" y="41"/>
      <point x="506" y="255" type="curve" smooth="yes"/>
      <point x="506" y="449"/>
      <point x="440" y="512"/>
      <point x="304" y="512" type="curve" smooth="yes"/>
      <point x="272" y="512"/>
      <point x="224" y="497"/>
      <point x="196" y="485" type="curve"/>
      <point x="196" y="700" type="line"/>
      <point x="62" y="700" type="line"/>
    </contour>
    <contour>
      <point x="269" y="104" type="curve" smooth="yes"/>
      <point x="249" y="104"/>
      <point x="215" y="107"/>
      <point x="196" y="110" type="curve"/>
      <point x="196" y="379" type="line"/>
      <point x="218" y="385"/>
      <point x="257" y="392"/>
      <point x="286" y="392" type="curve" smooth="yes"/>
      <point x="338" y="392"/>
      <point x="370" y="355"/>
      <point x="370" y="255" type="curve" smooth="yes"/>
      <point x="370" y="148"/>
      <point x="349" y="104"/>
    </contour>
  </outline>
</glyph>
<glyph name="dcaron" format="2">
  <advance width="664"/>
  <unicode hex="010F"/>
  <outline>
    <contour>
      <point x="544" y="444" type="line"/>
      <point x="665" y="444" type="line"/>
      <point x="720" y="678" type="line"/>
      <point x="590" y="678" type="line"/>
    </contour>
    <component base="d"/>
  </outline>
</glyph>
<glyph name="Idotaccent" format="2">
  <advance width="286"/>
  <unicode hex="0130"/>
  <outline>
    <contour>
      <point x="76" y="767" type="line"/>
      <point x="210" y="767" type="line"/>
      <point x="210" y="902" type="line"/>
      <point x="76" y="902" type="line"/>
    </contour>
    <component base="I"/>
  </outline>
</glyph>
<glyph name="Kcommaaccent" format="2">
  <advance width="591"/>
  <unicode hex="0136"/>
  <outline>
    <contour>
      <point x="199" y="-311" type="line"/>
      <point x="320" y="-311" type="line"/>
      <point x="375" y="-77" type="line"/>
      <point x="245" y="-77" type="line"/>
    </contour>
    <component base="K"/>
  </outline>
</glyph>
<glyph name="kcommaaccent" format="2">
  <advance width="515"/>
  <unicode hex="0137"/>
  <outline>
    <contour>
      <point x="-10" y="-311" type="line"/>
      <point x="111" y="-311" type="line"/>
      <point x="166" y="-77" type="line"/>
      <point x="36" y="-77" type="line"/>
    </contour>
    <component base="k"/>
  </outline>
</glyph>
<glyph name="Lcaron" format="2">
  <advance width="498"/>
  <unicode hex="013D"/>
  <outline>
    <contour>
      <point x="331" y="430" type="line"/>
      <point x="461" y="430" type="line"/>
      <point x="461" y="690" type="line"/>
      <point x="331" y="690" type="line"/>
    </contour>
    <component base="L"/>
  </outline>
</glyph>
<glyph name="lcaron" format="2">
  <advance width="377"/>
  <unicode hex="013E"/>
  <outline>
    <contour>
      <point x="257" y="444" type="line"/>
      <point x="378" y="444" type="line"/>
      <point x="433" y="678" type="line"/>
      <point x="303" y="678" type="line"/>
    </contour>
    <component base="l"/>
  </outline>
</glyph>
<glyph name="Lslash" format="2">
  <advance width="481"/>
  <unicode hex="0141"/>
  <outline>
    <contour>
      <point x="41" y="188" type="line"/>
      <point x="385" y="429" type="line"/>
      <point x="320" y="519" type="line"/>
      <point x="-24" y="278" type="line"/>
    </contour>
    <component base="L" xOffset="9"/>
  </outline>
</glyph>
<glyph name="Ncommaaccent" format="2">
  <advance width="693"/>
  <unicode hex="0145"/>
  <outline>
    <contour>
      <point x="253" y="-311" type="line"/>
      <point x="374" y="-311" type="line"/>
      <point x="429" y="-77" type="line"/>
      <point x="299" y="-77" type="line"/>
    </contour>
    <component base="N"/>
  </outline>
</glyph>
<glyph name="ncommaaccent" format="2">
  <advance width="553"/>
  <unicode hex="0146"/>
  <outline>
    <contour>
      <point x="-10" y="-311" type="line"/>
      <point x="111" y="-311" type="line"/>
      <point x="166" y="-77" type="line"/>
      <point x="36" y="-77" type="line"/>
    </contour>
    <component base="n"/>
  </outline>
</glyph>
<glyph name="Eng" format="2">
  <advance width="688"/>
  <unicode hex="014A"/>
  <outline>
    <contour>
      <point x="405" y="-228" type="line"/>
      <point x="555" y="-228"/>
      <point x="619" y="-193"/>
      <point x="619" y="-43" type="curve" smooth="yes"/>
      <point x="619" y="27" type="line"/>
      <point x="481" y="27" type="line"/>
      <point x="481" y="-37" type="line" smooth="yes"/>
      <point x="481" y="-94"/>
      <point x="455" y="-108"/>
      <point x="405" y="-108" type="curve"/>
    </contour>
    <component base="N"/>
  </outline>
</glyph>
<glyph name="rcommaaccent" format="2">
  <advance width="372"/>
  <unicode hex="0157"/>
  <outline>
    <contour>
      <point x="16" y="-311" type="line"/>
      <point x="137" y="-311" type="line"/>
      <point x="192" y="-77" type="line"/>
      <point x="62" y="-77" type="line"/>
    </contour>
    <component base="r"/>
  </outline>
</glyph>
<glyph name="tbar" format="2">
  <advance width="365"/>
  <unicode hex="0167"/>
  <outline>
    <contour>
      <point x="238" y="-12" type="curve" smooth="yes"/>
      <point x="264" y="-12"/>
      <point x="311" y="-3"/>
      <point x="340" y="3" type="curve"/>
      <point x="334" y="118" type="line"/>
      <point x="313" y="117"/>
      <point x="278" y="116"/>
      <point x="258" y="116" type="curve" smooth="yes"/>
      <point x="216" y="116"/>
      <point x="216" y="139"/>
      <point x="216" y="189" type="curve" smooth="yes"/>
      <point x="216" y="378" type="line"/>
      <point x="339" y="378" type="line"/>
      <point x="339" y="499" type="line"/>
      <point x="216" y="499" type="line"/>
      <point x="216" y="639" type="line"/>
      <point x="82" y="639" type="line"/>
      <point x="82" y="499" type="line"/>
      <point x="23" y="499" type="line"/>
      <point x="23" y="378" type="line"/>
      <point x="82" y="378" type="line"/>
      <point x="82" y="178" type="line" smooth="yes"/>
      <point x="82" y="34"/>
      <point x="117" y="-12"/>
    </contour>
    <contour>
      <point x="52" y="209" type="line"/>
      <point x="311" y="209" type="line"/>
      <point x="311" y="309" type="line"/>
      <point x="52" y="309" type="line"/>
    </contour>
  </outline>
</glyph>
<glyph name="scommaaccent" format="2">
  <advance width="472"/>
  <unicode hex="0219"/>
  <outline>
    <contour>
      <point x="-17" y="-311" type="line"/>
      <point x="104" y="-311" type="line"/>
      <point x="159" y="-77" type="line"/>
      <point x="29" y="-77" type="line"/>
    </contour>
    <component base="s"/>
  </outline>
</glyph>
<glyph name="Tcommaaccent" format="2">
  <advance width="526"/>
  <unicode hex="021A"/>
  <outline>
    <contour>
      <point x="177" y="-311" type="line"/>
      <point x="298" y="-311" type="line"/>
      <point x="353" y="-77" type="line"/>
      <point x="223" y="-77" type="line"/>
    </contour>
    <component base="T"/>
  </outline>
</glyph>
<glyph name="tcommaaccent" format="2">
  <advance width="364"/>
  <unicode hex="021B"/>
  <outline>
    <contour>
      <point x="3" y="-311" type="line"/>
      <point x="124" y="-311" type="line"/>
      <point x="179" y="-77" type="line"/>
      <point x="49" y="-77" type="line"/>
    </contour>
    <component base="t"/>
  </outline>
</glyph>
<glyph name="caron" format="2">
  <advance width="268"/>
  <unicode hex="02C7"/>
  <outline>
    <contour>
      <point x="106" y="580" type="line"/>
      <point x="190" y="580" type="line"/>
      <point x="318" y="731" type="line"/>
      <point x="195" y="731" type="line"/>
      <point x="149" y="664" type="line"/>
      <point x="103" y="731" type="line"/>
      <point x="-20" y="731" type="line"/>
    </contour>
  </outline>
</glyph>
<glyph name="ring" format="2">
  <advance width="268"/>
  <unicode hex="02DA"/>
  <outline>
    <contour>
      <point x="137" y="521" type="curve" smooth="yes"/>
      <point x="202" y="521"/>
      <point x="254" y="571"/>
      <point x="254" y="638" type="curve" smooth="yes"/>
      <point x="254" y="703"/>
      <point x="202" y="755"/>
      <point x="137" y="755" type="curve" smooth="yes"/>
      <point x="70" y="755"/>
      <point x="20" y="703"/>
      <point x="20" y="638" type="curve" smooth="yes"/>
      <point x="20" y="571"/>
      <point x="70" y="521"/>
    </contour>
    <contour>
      <point x="138" y="592" type="curve" smooth="yes"/>
      <point x="111" y="592"/>
      <point x="92" y="611"/>
      <point x="92" y="638" type="curve" smooth="yes"/>
      <point x="92" y="664"/>
      <point x="111" y="683"/>
      <point x="138" y="683" type="curve" smooth="yes"/>
      <point x="164" y="683"/>
      <point x="183" y="664"/>
      <point x="183" y="638" type="curve" smooth="yes"/>
      <point x="183" y="611"/>
      <point x="164" y="592"/>
    </contour>
  </outline>
</glyph>
<glyph name="commaaccentcomb" format="2">
  <unicode hex="0326"/>
  <anchor x="96" y="0" name="_bottom"/>
  <outline>
    <contour>
      <point x="-5" y="-311" type="line"/>
      <point x="116" y="-311" type="line"/>
      <point x="171" y="-77" type="line"/>
      <point x="41" y="-77" type="line"/>
    </contour>
  </outline>
</glyph>
<glyph name="question-ar" format="2">
  <advance width="437"/>
  <unicode hex="061F"/>
  <outline>
    <contour>
      <point x="294" y="217" type="line"/>
      <point x="307" y="232"/>
      <point x="325" y="266"/>
      <point x="325" y="308" type="curve" smooth="yes"/>
      <point x="325" y="334"/>
      <point x="306" y="359"/>
      <point x="253" y="402" type="curve" smooth="yes"/>
      <point x="179" y="461"/>
      <point x="169" y="476"/>
      <point x="169" y="513" type="curve" smooth="yes"/>
      <point x="169" y="547"/>
      <point x="187" y="572"/>
      <point x="254" y="572" type="curve" smooth="yes"/>
      <point x="303" y="572"/>
      <point x="365" y="563"/>
      <point x="398" y="556" type="curve"/>
      <point x="405" y="657" type="line"/>
      <point x="368" y="672"/>
      <point x="296" y="692"/>
      <point x="235" y="692" type="curve" smooth="yes"/>
      <point x="91" y="692"/>
      <point x="30" y="643"/>
      <point x="30" y="528" type="curve" smooth="yes"/>
      <point x="30" y="437"/>
      <point x="43" y="401"/>
      <point x="112" y="349" type="curve" smooth="yes"/>
      <point x="183" y="295"/>
      <point x="187" y="276"/>
      <point x="187" y="248" type="curve" smooth="yes"/>
      <point x="187" y="217" type="line"/>
    </contour>
    <contour>
      <point x="316" y="0" type="line"/>
      <point x="316" y="161" type="line"/>
      <point x="172" y="161" type="line"/>
      <point x="172" y="0" type="line"/>
    </contour>
  </outline>
</glyph>
<glyph name="hamza-ar" format="2">
  <advance width="605"/>
  <unicode hex="0621"/>
  <anchor x="308" y="-100" name="bottom"/>
  <anchor x="308" y="549" name="top"/>
  <outline>
    <contour>
      <point x="190" y="25" type="curve"/>
      <point x="290" y="105" type="line"/>
      <point x="254" y="145"/>
      <point x="238" y="183"/>
      <point x="238" y="226" type="curve" smooth="yes"/>
      <point x="238" y="303"/>
      <point x="290" y="357"/>
      <point x="367" y="357" type="curve" smooth="yes"/>
      <point x="393" y="357"/>
      <point x="414" y="351"/>
      <point x="439" y="335" type="curve"/>
      <point x="512" y="435" type="line"/>
      <point x="471" y="462"/>
      <point x="418" y="477"/>
      <point x="364" y="477" type="curve" smooth="yes"/>
      <point x="218" y="477"/>
      <point x="104" y="369"/>
      <point x="104" y="226" type="curve" smooth="yes"/>
      <point x="104" y="154"/>
      <point x="132" y="91"/>
    </contour>
    <contour>
      <point x="40" y="0" type="line"/>
      <point x="575" y="0" type="line"/>
      <point x="575" y="120" type="line"/>
      <point x="40" y="120" type="line"/>
    </contour>
  </outline>
</glyph>
<glyph name="sad-ar" format="2">
  <advance width="1219"/>
  <unicode hex="0635"/>
  <anchor x="843" y="-100" name="bottom"/>
  <anchor x="843" y="573" name="top"/>
  <outline>
    <contour>
      <point x="345" y="-248" type="curve" smooth="yes"/>
      <point x="518" y="-248"/>
      <point x="638" y="-150"/>
      <point x="638" y="-5" type="curve" smooth="yes"/>
      <point x="638" y="500" type="line"/>
      <point x="504" y="500" type="line"/>
      <point x="504" y="-5" type="line" smooth="yes"/>
      <point x="504" y="-81"/>
      <point x="449" y="-128"/>
      <point x="345" y="-128" type="curve" smooth="yes"/>
      <point x="240" y="-128"/>
      <point x="174" y="-74"/>
      <point x="174" y="1" type="curve" smooth="yes"/>
      <point x="174" y="37"/>
      <point x="186" y="135"/>
      <point x="208" y="274" type="curve"/>
      <point x="76" y="293" type="line"/>
      <point x="59" y="186"/>
      <point x="40" y="55"/>
      <point x="40" y="1" type="curve" smooth="yes"/>
      <point x="40" y="-143"/>
      <point x="170" y="-248"/>
    </contour>
    <contour>
      <point x="638" y="0" type="line"/>
      <point x="1149" y="0" type="line"/>
      <point x="1149" y="241" type="line" smooth="yes"/>
      <point x="1149" y="353"/>
      <point x="1106" y="500"/>
      <point x="916" y="500" type="curve" smooth="yes"/>
      <point x="750" y="500"/>
      <point x="670" y="388"/>
      <point x="587" y="285" type="curve"/>
      <point x="610" y="148" type="line"/>
      <point x="645" y="194"/>
      <point x="767" y="380"/>
      <point x="916" y="380" type="curve" smooth="yes"/>
      <point x="984" y="380"/>
      <point x="1015" y="342"/>
      <point x="1015" y="241" type="curve" smooth="yes"/>
      <point x="1015" y="0" type="line"/>
      <point x="1149" y="120" type="line"/>
      <point x="638" y="120" type="line"/>
    </contour>
  </outline>
</glyph>
<glyph name="madda-ar" format="2">
  <unicode hex="0653"/>
  <anchor x="178" y="537" name="_top"/>
  <anchor x="178" y="759" name="top"/>
  <outline>
    <contour>
      <point x="53" y="537" type="line"/>
      <point x="113" y="596" type="line"/>
      <point x="77" y="596" type="line"/>
      <point x="107" y="563"/>
      <point x="150" y="543"/>
      <point x="200" y="543" type="curve" smooth="yes"/>
      <point x="277" y="543"/>
      <point x="317" y="592"/>
      <point x="347" y="637" type="curve"/>
      <point x="363" y="599" type="line"/>
      <point x="266" y="675" type="line"/>
      <point x="301" y="709" type="line"/>
      <point x="307" y="672"/>
      <point x="266" y="646"/>
      <point x="222" y="646" type="curve" smooth="yes"/>
      <point x="188" y="646"/>
      <point x="156" y="661"/>
      <point x="146" y="682" type="curve"/>
      <point x="169" y="670" type="line"/>
      <point x="63" y="670" type="line"/>
      <point x="2" y="582" type="line"/>
    </contour>
  </outline>
</glyph>
<glyph name="hamzaabove-ar" format="2">
  <unicode hex="0654"/>
  <anchor x="151" y="463" name="_top"/>
  <anchor x="151" y="773" name="top"/>
  <outline>
    <contour>
      <point x="80" y="465" type="curve"/>
      <point x="148" y="518" type="line"/>
      <point x="134" y="535"/>
      <point x="128" y="548"/>
      <point x="128" y="566" type="curve" smooth="yes"/>
      <point x="128" y="599"/>
      <point x="151" y="623"/>
      <point x="183" y="623" type="curve" smooth="yes"/>
      <point x="196" y="623"/>
      <point x="206" y="620"/>
      <point x="217" y="614" type="curve"/>
      <point x="264" y="682" type="line"/>
      <point x="244" y="694"/>
      <point x="210" y="703"/>
      <point x="183" y="703" type="curve" smooth="yes"/>
      <point x="102" y="703"/>
      <point x="38" y="643"/>
      <point x="38" y="566" type="curve" smooth="yes"/>
      <point x="38" y="530"/>
      <point x="52" y="499"/>
    </contour>
    <contour>
      <point x="20" y="463" type="line"/>
      <point x="282" y="463" type="line"/>
      <point x="282" y="543" type="line"/>
      <point x="20" y="543" type="line"/>
    </contour>
  </outline>
</glyph>
<glyph name="three-ar" format="2">
  <advance width="698"/>
  <unicode hex="0663"/>
  <outline>
    <contour>
      <point x="487" y="306" type="curve" smooth="yes"/>
      <point x="593" y="306"/>
      <point x="658" y="374"/>
      <point x="658" y="488" type="curve" smooth="yes"/>
      <point x="658" y="660" type="line"/>
      <point x="524" y="660" type="line"/>
      <point x="524" y="488" type="line" smooth="yes"/>
      <point x="524" y="436"/>
      <point x="514" y="426"/>
      <point x="486" y="426" type="curve" smooth="yes"/>
      <point x="463" y="426"/>
      <point x="449" y="432"/>
      <point x="433" y="449" type="curve"/>
      <point x="335" y="367" type="line"/>
      <point x="371" y="329"/>
      <point x="426" y="306"/>
    </contour>
    <contour>
      <point x="100" y="2" type="line"/>
      <point x="234" y="2" type="line"/>
      <point x="234" y="660" type="line"/>
      <point x="100" y="660" type="line"/>
    </contour>
    <contour>
      <point x="275" y="306" type="curve" smooth="yes"/>
      <point x="381" y="306"/>
      <point x="446" y="374"/>
      <point x="446" y="488" type="curve" smooth="yes"/>
      <point x="446" y="660" type="line"/>
      <point x="312" y="660" type="line"/>
      <point x="312" y="488" type="line" smooth="yes"/>
      <point x="312" y="436"/>
      <point x="302" y="426"/>
      <point x="274" y="426" type="curve" smooth="yes"/>
      <point x="251" y="426"/>
      <point x="237" y="432"/>
      <point x="221" y="449" type="curve"/>
      <point x="123" y="367" type="line"/>
      <point x="159" y="329"/>
      <point x="214" y="306"/>
    </contour>
  </outline>
</glyph>
<glyph name="eight-ar" format="2">
  <advance width="681"/>
  <unicode hex="0668"/>
  <outline>
    <contour>
      <point x="246" y="660" type="line"/>
      <point x="30" y="0" type="line"/>
      <point x="168" y="0" type="line"/>
      <point x="353" y="608" type="line"/>
      <point x="246" y="540" type="line"/>
      <point x="388" y="540" type="line"/>
      <point x="321" y="607" type="line"/>
      <point x="512" y="0" type="line"/>
      <point x="651" y="0" type="line"/>
      <point x="428" y="660" type="line"/>
    </contour>
  </outline>
</glyph>
<glyph name="percent-ar" format="2">
  <advance width="560"/>
  <unicode hex="066A"/>
  <outline>
    <contour>
      <point x="198" y="-32" type="line"/>
      <point x="433" y="673" type="line"/>
      <point x="360" y="699" type="line"/>
      <point x="125" y="-8" type="line"/>
    </contour>
    <contour>
      <point x="369" y="74" type="line"/>
      <point x="503" y="74" type="line"/>
      <point x="503" y="194" type="line"/>
      <point x="369" y="194" type="line"/>
    </contour>
    <contour>
      <point x="57" y="467" type="line"/>
      <point x="191" y="467" type="line"/>
      <point x="191" y="587" type="line"/>
      <point x="57" y="587" type="line"/>
    </contour>
  </outline>
</glyph>
<glyph name="thousandseparator-ar" format="2">
  <advance width="214"/>
  <unicode hex="066C"/>
  <outline>
    <contour>
      <point x="20" y="-122" type="line"/>
      <point x="101" y="-122" type="line"/>
      <point x="169" y="73" type="line"/>
      <point x="58" y="73" type="line"/>
    </contour>
  </outline>
</glyph>
<glyph name="behDotless-ar" format="2">
  <advance width="828"/>
  <unicode hex="066E"/>
  <anchor x="399" y="-60" name="bottom"/>
  <anchor x="399" y="510" name="top"/>
  <outline>
    <contour>
      <point x="337" y="0" type="curve" smooth="yes"/>
      <point x="758" y="0" type="line"/>
      <point x="758" y="500" type="line"/>
      <point x="624" y="500" type="line"/>
      <point x="624" y="120" type="line"/>
      <point x="337" y="120" type="line" smooth="yes"/>
      <point x="202" y="120"/>
      <point x="174" y="143"/>
      <point x="174" y="212" type="curve" smooth="yes"/>
      <point x="174" y="269"/>
      <point x="194" y="345"/>
      <point x="197" y="367" type="curve"/>
      <point x="66" y="392" type="line"/>
      <point x="63" y="368"/>
      <point x="40" y="279"/>
      <point x="40" y="213" type="curve" smooth="yes"/>
      <point x="40" y="67"/>
      <point x="138" y="0"/>
    </contour>
  </outline>
</glyph>
<glyph name="hehDoachashmee-ar" format="2">
  <advance width="822"/>
  <unicode hex="06BE"/>
  <anchor x="408" y="-100" name="bottom"/>
  <anchor x="407" y="666" name="top"/>
  <outline>
    <contour>
      <point x="40" y="0" type="line"/>
      <point x="752" y="0" type="line"/>
      <point x="752" y="213" type="line" smooth="yes"/>
      <point x="752" y="486"/>
      <point x="580" y="569"/>
      <point x="407" y="569" type="curve" smooth="yes"/>
      <point x="312" y="569"/>
      <point x="205" y="544"/>
      <point x="132" y="526" type="curve"/>
      <point x="160" y="360" type="line"/>
      <point x="122" y="417" type="line"/>
      <point x="191" y="429"/>
      <point x="306" y="448"/>
      <point x="394" y="448" type="curve" smooth="yes"/>
      <point x="551" y="448"/>
      <point x="618" y="387"/>
      <point x="618" y="213" type="curve" smooth="yes"/>
      <point x="618" y="40" type="line"/>
      <point x="712" y="120" type="line"/>
      <point x="40" y="120" type="line"/>
    </contour>
    <contour>
      <point x="110" y="120" type="line"/>
      <point x="244" y="120" type="line"/>
      <point x="244" y="141" type="line" smooth="yes"/>
      <point x="244" y="190"/>
      <point x="279" y="229"/>
      <point x="318" y="229" type="curve" smooth="yes"/>
      <point x="357" y="229"/>
      <point x="390" y="191"/>
      <point x="390" y="142" type="curve" smooth="yes"/>
      <point x="390" y="120" type="line"/>
      <point x="524" y="120" type="line"/>
      <point x="524" y="142" type="line" smooth="yes"/>
      <point x="524" y="247"/>
      <point x="441" y="349"/>
      <point x="318" y="349" type="curve" smooth="yes"/>
      <point x="195" y="349"/>
      <point x="110" y="246"/>
      <point x="110" y="141" type="curve" smooth="yes"/>
    </contour>
  </outline>
</glyph>
<glyph name="five-persian" format="2">
  <advance width="554"/>
  <unicode hex="06F5"/>
  <outline>
    <contour>
      <point x="218" y="-2" type="curve" smooth="yes"/>
      <point x="286" y="-2"/>
      <point x="303" y="67"/>
      <point x="310" y="71" type="curve"/>
      <point x="317" y="67"/>
      <point x="335" y="-2"/>
      <point x="402" y="-2" type="curve" smooth="yes"/>
      <point x="460" y="-2"/>
      <point x="555" y="57"/>
      <point x="555" y="215" type="curve" smooth="yes"/>
      <point x="555" y="395"/>
      <point x="413" y="543"/>
      <point x="250" y="682" type="curve"/>
      <point x="162" y="586" type="line"/>
      <point x="302" y="464"/>
      <point x="431" y="342"/>
      <point x="431" y="206" type="curve" smooth="yes"/>
      <point x="431" y="149"/>
      <point x="406" y="120"/>
      <point x="386" y="120" type="curve" smooth="yes"/>
      <point x="353" y="120"/>
      <point x="338" y="198"/>
      <point x="310" y="201" type="curve"/>
      <point x="284" y="198"/>
      <point x="270" y="120"/>
      <point x="235" y="120" type="curve" smooth="yes"/>
      <point x="209" y="120"/>
      <point x="187" y="148"/>
      <point x="187" y="203" type="curve" smooth="yes"/>
      <point x="187" y="327"/>
      <point x="238" y="385"/>
      <point x="366" y="504" type="curve"/>
      <point x="307" y="566" type="line"/>
      <point x="156" y="454"/>
      <point x="68" y="338"/>
      <point x="68" y="210" type="curve" smooth="yes"/>
      <point x="68" y="66"/>
      <point x="154" y="-2"/>
    </contour>
  </outline>
</glyph>
<glyph name="quoteleft" format="2">
  <advance width="259"/>
  <unicode hex="2018"/>
  <outline>
    <contour>
      <point x="223" y="679" type="line"/>
      <point x="120" y="679" type="line"/>
      <point x="35" y="432" type="line"/>
      <point x="176" y="432" type="line"/>
    </contour>
  </outline>
</glyph>
<glyph name="quotedblright" format="2">
  <advance width="439"/>
  <unicode hex="201D"/>
  <outline>
    <contour>
      <point x="41" y="434" type="line"/>
      <point x="143" y="434" type="line"/>
      <point x="229" y="681" type="line"/>
      <point x="88" y="681" type="line"/>
    </contour>
    <contour>
      <point x="225" y="434" type="line"/>
      <point x="328" y="434" type="line"/>
      <point x="413" y="681" type="line"/>
      <point x="273" y="681" type="line"/>
    </contour>
  </outline>
</glyph>
<glyph name="quotedblbase" format="2">
  <advance width="421"/>
  <unicode hex="201E"/>
  <outline>
    <contour>
      <point x="181" y="117" type="line"/>
      <point x="78" y="117" type="line"/>
      <point x="-7" y="-130" type="line"/>
      <point x="134" y="-130" type="line"/>
    </contour>
    <contour>
      <point x="371" y="117" type="line"/>
      <point x="268" y="117" type="line"/>
      <point x="183" y="-130" type="line"/>
      <point x="324" y="-130" type="line"/>
    </contour>
  </outline>
</glyph>
<glyph name="daggerdbl" format="2">
  <advance width="512"/>
  <unicode hex="2021"/>
  <outline>
    <contour>
      <point x="189" y="-71" type="line"/>
      <point x="323" y="-71" type="line"/>
      <point x="323" y="109" type="line"/>
      <point x="468" y="109" type="line"/>
      <point x="468" y="223" type="line"/>
      <point x="323" y="223" type="line"/>
      <point x="323" y="386" type="line"/>
      <point x="467" y="386" type="line"/>
      <point x="467" y="500" type="line"/>
      <point x="323" y="500" type="line"/>
      <point x="323" y="680" type="line"/>
      <point x="189" y="680" type="line"/>
      <point x="189" y="500" type="line"/>
      <point x="44" y="500" type="line"/>
      <point x="44" y="386" type="line"/>
      <point x="189" y="386" type="line"/>
      <point x="189" y="223" type="line"/>
      <point x="44" y="223" type="line"/>
      <point x="44" y="109" type="line"/>
      <point x="189" y="109" type="line"/>
    </contour>
  </outline>
</glyph>
<glyph name="perthousand" format="2">
  <advance width="845"/>
  <unicode hex="2030"/>
  <outline>
    <contour>
      <point x="149" y="381" type="curve" smooth="yes"/>
      <point x="226" y="381"/>
      <point x="269" y="430"/>
      <point x="269" y="527" type="curve" smooth="yes"/>
      <point x="269" y="624"/>
      <point x="226" y="672"/>
      <point x="149" y="672" type="curve" smooth="yes"/>
      <point x="72" y="672"/>
      <point x="29" y="624"/>
      <point x="29" y="527" type="curve" smooth="yes"/>
      <point x="29" y="430"/>
      <point x="72" y="381"/>
    </contour>
    <contour>
      <point x="149" y="461" type="curve" smooth="yes"/>
      <point x="131" y="461"/>
      <point x="127" y="481"/>
      <point x="127" y="527" type="curve" smooth="yes"/>
      <point x="127" y="573"/>
      <point x="131" y="592"/>
      <point x="149" y="592" type="curve" smooth="yes"/>
      <point x="167" y="592"/>
      <point x="171" y="573"/>
      <point x="171" y="527" type="curve" smooth="yes"/>
      <point x="171" y="481"/>
      <point x="167" y="461"/>
    </contour>
    <contour>
      <point x="213" y="-32" type="line"/>
      <point x="448" y="673" type="line"/>
      <point x="375" y="699" type="line"/>
      <point x="140" y="-8" type="line"/>
    </contour>
    <contour>
      <point x="441" y="-12" type="curve" smooth="yes"/>
      <point x="518" y="-12"/>
      <point x="561" y="37"/>
      <point x="561" y="134" type="curve" smooth="yes"/>
      <point x="561" y="231"/>
      <point x="518" y="279"/>
      <point x="441" y="279" type="curve" smooth="yes"/>
      <point x="364" y="279"/>
      <point x="321" y="231"/>
      <point x="321" y="134" type="curve" smooth="yes"/>
      <point x="321" y="37"/>
      <point x="364" y="-12"/>
    </contour>
    <contour>
      <point x="441" y="68" type="curve" smooth="yes"/>
      <point x="423" y="68"/>
      <point x="419" y="88"/>
      <point x="419" y="134" type="curve" smooth="yes"/>
      <point x="419" y="180"/>
      <point x="423" y="199"/>
      <point x="441" y="199" type="curve" smooth="yes"/>
      <point x="459" y="199"/>
      <point x="463" y="180"/>
      <point x="463" y="134" type="curve" smooth="yes"/>
      <point x="463" y="88"/>
      <point x="459" y="68"/>
    </contour>
    <contour>
      <point x="698" y="-12" type="curve" smooth="yes"/>
      <point x="775" y="-12"/>
      <point x="818" y="37"/>
      <point x="818" y="134" type="curve" smooth="yes"/>
      <point x="818" y="231"/>
      <point x="775" y="279"/>
      <point x="698" y="279" type="curve" smooth="yes"/>
      <point x="621" y="279"/>
      <point x="578" y="231"/>
      <point x="578" y="134" type="curve" smooth="yes"/>
      <point x="578" y="37"/>
      <point x="621" y="-12"/>
    </contour>
    <contour>
      <point x="698" y="68" type="curve" smooth="yes"/>
      <point x="680" y="68"/>
      <point x="676" y="88"/>
      <point x="676" y="134" type="curve" smooth="yes"/>
      <point x="676" y="180"/>
      <point x="680" y="199"/>
      <point x="698" y="199" type="curve" smooth="yes"/>
      <point x="716" y="199"/>
      <point x="720" y="180"/>
      <point x="720" y="134" type="curve" smooth="yes"/>
      <point x="720" y="88"/>
      <point x="716" y="68"/>
    </contour>
  </outline>
</glyph>
<glyph name="fraction" format="2">
  <advance width="10"/>
  <unicode hex="2044"/>
  <outline>
    <contour>
      <point x="-171" y="-7" type="line"/>
      <point x="222" y="626" type="line"/>
      <point x="169" y="661" type="line"/>
      <point x="-224" y="29" type="line"/>
    </contour>
  </outline>
</glyph>
<glyph name="foursuperior" format="2">
  <advance width="280"/>
  <unicode hex="2074"/>
  <outline>
    <contour>
      <point x="146" y="478" type="line"/>
      <point x="251" y="478" type="line"/>
      <point x="251" y="513" type="line"/>
      <point x="262" y="513" type="line"/>
      <point x="262" y="608" type="line"/>
      <point x="251" y="608" type="line"/>
      <point x="251" y="698" type="line"/>
      <point x="160" y="698" type="line"/>
      <point x="146" y="608" type="line"/>
      <point x="119" y="608" type="line"/>
      <point x="171" y="790" type="line"/>
      <point x="53" y="790" type="line"/>
      <point x="14" y="601" type="line"/>
      <point x="14" y="513" type="line"/>
      <point x="146" y="513" type="line"/>
    </contour>
  </outline>
</glyph>
<glyph name="sixsuperior" format="2">
  <advance width="280"/>
  <unicode hex="2076"/>
  <outline>
    <contour>
      <point x="147" y="467" type="curve" smooth="yes"/>
      <point x="214" y="467"/>
      <point x="266" y="508"/>
      <point x="266" y="582" type="curve" smooth="yes"/>
      <point x="266" y="651"/>
      <point x="236" y="687"/>
      <point x="162" y="687" type="curve" smooth="yes"/>
      <point x="153" y="687"/>
      <point x="140" y="685"/>
      <point x="132" y="683" type="curve"/>
      <point x="127" y="682"/>
      <point x="124" y="682"/>
      <point x="124" y="682" type="curve"/>
      <point x="124" y="695"/>
      <point x="131" y="708"/>
      <point x="157" y="708" type="curve" smooth="yes"/>
      <point x="177" y="708"/>
      <point x="223" y="705"/>
      <point x="251" y="702" type="curve"/>
      <point x="257" y="789" type="line"/>
      <point x="228" y="794"/>
      <point x="179" y="801"/>
      <point x="153" y="801" type="curve" smooth="yes"/>
      <point x="47" y="801"/>
      <point x="16" y="734"/>
      <point x="16" y="622" type="curve" smooth="yes"/>
      <point x="16" y="525"/>
      <point x="55" y="467"/>
    </contour>
    <contour>
      <point x="142" y="559" type="curve" smooth="yes"/>
      <point x="131" y="559"/>
      <point x="124" y="574"/>
      <point x="124" y="593" type="curve"/>
      <point x="127" y="596"/>
      <point x="134" y="601"/>
      <point x="143" y="601" type="curve" smooth="yes"/>
      <point x="153" y="601"/>
      <point x="159" y="594"/>
      <point x="159" y="580" type="curve" smooth="yes"/>
      <point x="159" y="567"/>
      <point x="152" y="559"/>
    </contour>
  </outline>
</glyph>
<glyph name="Euro" format="2">
  <advance width="560"/>
  <unicode hex="20AC"/>
  <outline>
    <contour>
      <point x="26" y="355" type="line"/>
      <point x="462" y="355" type="line"/>
      <point x="462" y="457" type="line"/>
      <point x="26" y="457" type="line"/>
    </contour>
    <contour>
      <point x="26" y="187" type="line"/>
      <point x="462" y="187" type="line"/>
      <point x="462" y="289" type="line"/>
      <point x="26" y="289" type="line"/>
    </contour>
    <component base="C" xScale="0.971" yScale="0.971" xOffset="35"/>
  </outline>
</glyph>
<glyph name="trademark" format="2">
  <advance width="660"/>
  <unicode hex="2122"/>
  <outline>
    <contour>
      <point x="305" y="331" type="line"/>
      <point x="387" y="331" type="line"/>
      <point x="387" y="505" type="line"/>
      <point x="425" y="352" type="line"/>
      <point x="480" y="352" type="line"/>
      <point x="514" y="505" type="line"/>
      <point x="514" y="331" type="line"/>
      <point x="596" y="331" type="line"/>
      <point x="596" y="644" type="line"/>
      <point x="494" y="644" type="line"/>
      <point x="449" y="486" type="line"/>
      <point x="408" y="644" type="line"/>
      <point x="305" y="644" type="line"/>
    </contour>
    <contour>
      <point x="151" y="332" type="line"/>
      <point x="239" y="332" type="line"/>
      <point x="239" y="565" type="line"/>
      <point x="280" y="565" type="line"/>
      <point x="280" y="644" type="line"/>
      <point x="80" y="644" type="line"/>
      <point x="80" y="565" type="line"/>
      <point x="151" y="565" type="line"/>
    </contour>
  </outline>
</glyph>
<glyph name="Omega" format="2">
  <advance width="560"/>
  <unicode hex="2126"/>
  <outline>
    <contour>
      <point x="52" y="-9" type="line"/>
      <point x="260" y="-9" type="line"/>
      <point x="260" y="90" type="line"/>
      <point x="226" y="148"/>
      <point x="182" y="259"/>
      <point x="182" y="350" type="curve" smooth="yes"/>
      <point x="182" y="496"/>
      <point x="195" y="552"/>
      <point x="280" y="552" type="curve" smooth="yes"/>
      <point x="365" y="552"/>
      <point x="378" y="496"/>
      <point x="378" y="350" type="curve" smooth="yes"/>
      <point x="378" y="259"/>
      <point x="334" y="148"/>
      <point x="300" y="90" type="curve"/>
      <point x="300" y="-9" type="line"/>
      <point x="508" y="-9" type="line"/>
      <point x="508" y="105" type="line"/>
      <point x="428" y="105" type="line"/>
      <point x="468" y="151"/>
      <point x="520" y="259"/>
      <point x="520" y="385" type="curve" smooth="yes"/>
      <point x="520" y="584"/>
      <point x="453" y="672"/>
      <point x="280" y="672" type="curve" smooth="yes"/>
      <point x="107" y="672"/>
      <point x="40" y="584"/>
      <point x="40" y="385" type="curve" smooth="yes"/>
      <point x="40" y="259"/>
      <point x="92" y="151"/>
      <point x="132" y="105" type="curve"/>
      <point x="52" y="105" type="line"/>
    </contour>
  </outline>
</glyph>
<glyph name="gaf-ar.init" format="2">
  <advance width="651"/>
  <unicode hex="FB94"/>
  <anchor x="283" y="-100" name="bottom"/>
  <anchor x="158" y="887" name="top"/>
  <outline>
    <contour>
      <point x="-15" y="457" type="line"/>
      <point x="78" y="637" type="line" smooth="yes"/>
      <point x="96" y="673"/>
      <point x="175" y="795"/>
      <point x="193" y="824" type="curve"/>
      <point x="187" y="753" type="line"/>
      <point x="34" y="840" type="line"/>
      <point x="123" y="863" type="line"/>
      <point x="71" y="785"/>
      <point x="33" y="727"/>
      <point x="12" y="687" type="curve" smooth="yes"/>
      <point x="-55" y="555" type="line"/>
      <point x="-62" y="660" type="line"/>
      <point x="71" y="470" type="line"/>
    </contour>
    <component base="keheh-ar.init"/>
  </outline>
</glyph>
<glyph name="hehgoal-ar.medi" format="2">
  <advance width="625"/>
  <unicode hex="FBA9"/>
  <anchor x="313" y="-407" name="bottom"/>
  <anchor x="313" y="282" name="top"/>
  <outline>
    <contour>
      <point x="525" y="-368" type="line"/>
      <point x="525" y="61" type="line"/>
      <point x="464" y="0" type="line"/>
      <point x="625" y="0" type="line"/>
      <point x="625" y="120" type="line"/>
      <point x="391" y="120" type="line"/>
      <point x="391" y="-307" type="line"/>
      <point x="462" y="-188" type="line"/>
      <point x="391" y="-195"/>
      <point x="376" y="-196"/>
      <point x="357" y="-196" type="curve" smooth="yes"/>
      <point x="266" y="-196"/>
      <point x="248" y="-175"/>
      <point x="240" y="120" type="curve"/>
      <point x="0" y="120" type="line"/>
      <point x="0" y="0" type="line"/>
      <point x="167" y="0" type="line"/>
      <point x="104" y="58" type="line"/>
      <point x="108" y="-192"/>
      <point x="144" y="-316"/>
      <point x="355" y="-316" type="curve" smooth="yes"/>
      <point x="404" y="-316"/>
      <point x="488" y="-312"/>
      <point x="565" y="-298" type="curve"/>
    </contour>
    <component base="connection_r" xOffset="575"/>
    <component base="connection_l"/>
  </outline>
</glyph>
<glyph name="threedotsupabove-ar" format="2">
  <advance width="363"/>
  <unicode hex="FBB6"/>
  <anchor x="182" y="544" name="_top"/>
  <anchor x="182" y="949" name="top"/>
  <outline>
    <contour>
      <point x="121" y="725" type="line"/>
      <point x="243" y="725" type="line"/>
      <point x="243" y="849" type="line"/>
      <point x="121" y="849" type="line"/>
    </contour>
    <component base="twodotshorizontalabove-ar" xOffset="10"/>
  </outline>
</glyph>
<glyph name="seen_reh-ar.fina" format="2">
  <advance width="1278"/>
  <unicode hex="FD2A"/>
  <outline>
    <contour>
      <point x="1159" y="0" type="line"/>
      <point x="1278" y="0" type="line"/>
      <point x="1278" y="120" type="line"/>
      <point x="1159" y="120" type="line"/>
    </contour>
    <component base="connection_r" xOffset="1228"/>
    <component base="seen_reh-ar"/>
  </outline>
</glyph>
<glyph name="allah-ar" format="2">
  <advance width="1542"/>
  <unicode hex="FDF2"/>
  <anchor x="1137" y="-100" name="bottom_1"/>
  <anchor x="779" y="-100" name="bottom_2"/>
  <anchor x="286" y="-100" name="bottom_3"/>
  <anchor x="385.5" y="0" name="caret_1"/>
  <anchor x="771" y="0" name="caret_2"/>
  <anchor x="1156.5" y="0" name="caret_3"/>
  <anchor x="1137" y="828" name="top_1"/>
  <anchor x="779" y="1166" name="top_2"/>
  <anchor x="286" y="567" name="top_3"/>
  <outline>
    <contour>
      <point x="712" y="0" type="line"/>
      <point x="846" y="0" type="line"/>
      <point x="846" y="700" type="line"/>
      <point x="712" y="700" type="line"/>
    </contour>
    <contour>
      <point x="563" y="0" type="line"/>
      <point x="712" y="0" type="line"/>
      <point x="712" y="120" type="line"/>
      <point x="563" y="120" type="line"/>
    </contour>
    <contour>
      <point x="846" y="0" type="line"/>
      <point x="965" y="0" type="line"/>
      <point x="965" y="120" type="line"/>
      <point x="846" y="120" type="line"/>
    </contour>
    <component base="alef-ar" xOffset="1228"/>
    <component base="heh-ar.fina"/>
    <component base="shaddaAlefabove-ar" xOffset="585" yOffset="355"/>
    <component base="lam-ar.init" xOffset="895"/>
  </outline>
</glyph>
<glyph name="ain-ar.fina" format="2">
  <advance width="667"/>
  <unicode hex="FECA"/>
  <anchor x="270" y="-400" name="bottom"/>
  <anchor x="341" y="573" name="top"/>
  <outline>
    <contour>
      <point x="310" y="-332" type="curve" smooth="yes"/>
      <point x="350" y="-332"/>
      <point x="394" y="-327"/>
      <point x="486" y="-306" type="curve"/>
      <point x="457" y="-146" type="line"/>
      <point x="534" y="-187" type="line"/>
      <point x="425" y="-206"/>
      <point x="353" y="-212"/>
      <point x="312" y="-212" type="curve" smooth="yes"/>
      <point x="210" y="-212"/>
      <point x="174" y="-173"/>
      <point x="174" y="-104" type="curve" smooth="yes"/>
      <point x="174" y="-28"/>
      <point x="217" y="11"/>
      <point x="262" y="33" type="curve"/>
      <point x="271" y="37"/>
      <point x="283" y="43"/>
      <point x="297" y="49" type="curve" smooth="yes"/>
      <point x="312" y="56"/>
      <point x="330" y="64"/>
      <point x="350" y="73" type="curve" smooth="yes"/>
      <point x="459" y="125"/>
      <point x="614" y="220"/>
      <point x="614" y="372" type="curve" smooth="yes"/>
      <point x="614" y="431" type="line"/>
      <point x="528" y="476"/>
      <point x="422" y="500"/>
      <point x="341" y="500" type="curve" smooth="yes"/>
      <point x="260" y="500"/>
      <point x="154" y="476"/>
      <point x="68" y="431" type="curve"/>
      <point x="68" y="372" type="line" smooth="yes"/>
      <point x="68" y="235"/>
      <point x="252" y="0"/>
      <point x="513" y="0" type="curve" smooth="yes"/>
      <point x="667" y="0" type="line"/>
      <point x="667" y="120" type="line"/>
      <point x="513" y="120" type="line" smooth="yes"/>
      <point x="371" y="120"/>
      <point x="202" y="261"/>
      <point x="202" y="372" type="curve" smooth="yes"/>
      <point x="202" y="431" type="line"/>
      <point x="130" y="325" type="line"/>
      <point x="197" y="360"/>
      <point x="275" y="380"/>
      <point x="341" y="380" type="curve" smooth="yes"/>
      <point x="407" y="380"/>
      <point x="485" y="360"/>
      <point x="552" y="325" type="curve"/>
      <point x="480" y="431" type="line"/>
      <point x="480" y="372" type="line" smooth="yes"/>
      <point x="480" y="307"/>
      <point x="405" y="229"/>
      <point x="270" y="168" type="curve" smooth="yes"/>
      <point x="215" y="145" type="line"/>
      <point x="106" y="106"/>
      <point x="40" y="8"/>
      <point x="40" y="-105" type="curve" smooth="yes"/>
      <point x="40" y="-247"/>
      <point x="146" y="-332"/>
    </contour>
    <component base="connection_r" xOffset="617"/>
  </outline>
</glyph>
<glyph name="kaf-ar.init" format="2">
  <advance width="651"/>
  <unicode hex="FEDB"/>
  <anchor x="253" y="-100" name="bottom"/>
  <anchor x="214" y="818" name="top"/>
  <outline>
    <contour>
      <point x="0" y="0" type="line"/>
      <point x="581" y="0" type="line"/>
      <point x="581" y="239" type="line" smooth="yes"/>
      <point x="581" y="344"/>
      <point x="540" y="485"/>
      <point x="361" y="485" type="curve" smooth="yes"/>
      <point x="125" y="485" type="line"/>
      <point x="158" y="431" type="line"/>
      <point x="214" y="539" type="line" smooth="yes"/>
      <point x="233" y="575"/>
      <point x="251" y="606"/>
      <point x="301" y="682" type="curve"/>
      <point x="189" y="748" type="line"/>
      <point x="141" y="675"/>
      <point x="117" y="635"/>
      <point x="95" y="595" type="curve" smooth="yes"/>
      <point x="48" y="502" type="line"/>
      <point x="140" y="365" type="line"/>
      <point x="361" y="365" type="line" smooth="yes"/>
      <point x="420" y="365"/>
      <point x="447" y="331"/>
      <point x="447" y="239" type="curve" smooth="yes"/>
      <point x="447" y="80" type="line"/>
      <point x="491" y="120" type="line"/>
      <point x="0" y="120" type="line"/>
    </contour>
    <component base="connection_l"/>
  </outline>
</glyph>
<glyph name="kaf-ar.medi" format="2">
  <advance width="700"/>
  <unicode hex="FEDC"/>
  <outline>
    <contour>
      <point x="581" y="0" type="line"/>
      <point x="700" y="0" type="line"/>
      <point x="700" y="120" type="line"/>
      <point x="581" y="120" type="line"/>
    </contour>
    <component base="kaf-ar.init"/>
    <component base="connection_r" xOffset="650"/>
  </outline>
</glyph>
<glyph name="meem-ar.init" format="2">
  <advance width="677"/>
  <unicode hex="FEE3"/>
  <anchor x="324" y="-100" name="bottom"/>
  <anchor x="324" y="573" name="top"/>
  <outline>
    <contour>
      <point x="0" y="0" type="line"/>
      <point x="607" y="0" type="line"/>
      <point x="607" y="245" type="line" smooth="yes"/>
      <point x="607" y="432"/>
      <point x="516" y="500"/>
      <point x="336" y="500" type="curve" smooth="yes"/>
      <point x="251" y="500"/>
      <point x="177" y="485"/>
      <point x="145" y="473" type="curve"/>
      <point x="133" y="428"/>
      <point x="116" y="334"/>
      <point x="116" y="238" type="curve" smooth="yes"/>
      <point x="116" y="147"/>
      <point x="130" y="65"/>
      <point x="140" y="32" type="curve"/>
      <point x="268" y="67" type="line"/>
      <point x="259" y="98"/>
      <point x="250" y="177"/>
      <point x="250" y="238" type="curve" smooth="yes"/>
      <point x="250" y="302"/>
      <point x="260" y="388"/>
      <point x="274" y="442" type="curve"/>
      <point x="192" y="361" type="line"/>
      <point x="224" y="372"/>
      <point x="279" y="380"/>
      <point x="336" y="380" type="curve" smooth="yes"/>
      <point x="449" y="380"/>
      <point x="473" y="357"/>
      <point x="473" y="245" type="curve" smooth="yes"/>
      <point x="473" y="0" type="line"/>
      <point x="607" y="120" type="line"/>
      <point x="0" y="120" type="line"/>
    </contour>
    <component base="connection_l"/>
  </outline>
</glyph>
<glyph name="lam_alef-ar" format="2">
  <advance width="699"/>
  <unicode hex="FEFB"/>
  <anchor x="562" y="-60" name="bottom_1"/>
  <anchor x="253" y="-60" name="bottom_2"/>
  <anchor x="378" y="0" name="caret_1"/>
  <anchor x="562" y="750" name="top_1"/>
  <anchor x="253" y="615" name="top_2"/>
  <outline>
    <contour>
      <point x="40" y="0" type="line"/>
      <point x="629" y="0" type="line"/>
      <point x="629" y="700" type="line"/>
      <point x="495" y="700" type="line"/>
      <point x="495" y="60" type="line"/>
      <point x="550" y="120" type="line"/>
      <point x="40" y="120" type="line"/>
    </contour>
    <contour>
      <point x="186" y="120" type="line"/>
      <point x="320" y="120" type="line"/>
      <point x="320" y="565" type="line"/>
      <point x="186" y="565" type="line"/>
    </contour>
  </outline>
</glyph>
<glyph name="alef-ar.short" format="2">
  <advance width="314"/>
  <anchor x="157" y="-37" name="bottom"/>
  <anchor x="157" y="634" name="top"/>
  <outline>
    <contour>
      <point x="90" y="0" type="line"/>
      <point x="224" y="0" type="line"/>
      <point x="224" y="595" type="line"/>
      <point x="90" y="595" type="line"/>
    </contour>
  </outline>
</glyph>
<glyph name="alefMaksura_reh-ar.fina" format="2">
  <advance width="700"/>
  <anchor x="514" y="-60" name="bottom_1"/>
  <anchor x="90" y="-350" name="bottom_2"/>
  <anchor x="350" y="0" name="caret_1"/>
  <anchor x="514" y="573" name="top_1"/>
  <anchor x="142" y="573" name="top_2"/>
  <outline>
    <contour>
      <point x="447" y="0" type="line"/>
      <point x="700" y="0" type="line"/>
      <point x="700" y="120" type="line"/>
      <point x="517" y="120" type="line"/>
      <point x="581" y="70" type="line"/>
      <point x="581" y="500" type="line"/>
      <point x="447" y="500" type="line"/>
    </contour>
    <contour>
      <point x="209" y="269" type="line"/>
      <point x="447" y="269" type="line"/>
      <point x="447" y="389" type="line"/>
      <point x="209" y="389" type="line"/>
    </contour>
    <component base="reh-ar"/>
    <component base="connection_r" xOffset="650"/>
  </outline>
</glyph>
<glyph name="behDotless-ar.medi.alt" format="2">
  <advance width="372"/>
  <anchor x="186" y="-60" name="bottom"/>
  <anchor x="186" y="573" name="top"/>
  <outline>
    <contour>
      <point x="253" y="0" type="line"/>
      <point x="372" y="0" type="line"/>
      <point x="372" y="120" type="line"/>
      <point x="253" y="120" type="line"/>
    </contour>
    <contour>
      <point x="0" y="0" type="line"/>
      <point x="253" y="0" type="line"/>
      <point x="253" y="500" type="line"/>
      <point x="119" y="500" type="line"/>
      <point x="119" y="70" type="line"/>
      <point x="183" y="120" type="line"/>
      <point x="0" y="120" type="line"/>
    </contour>
    <component base="connection_l"/>
    <component base="connection_r" xOffset="322"/>
  </outline>
</glyph>
<glyph name="behDotless-ar.medi" format="2">
  <advance width="372"/>
  <outline>
    <contour>
      <point x="253" y="0" type="line"/>
      <point x="372" y="0" type="line"/>
      <point x="372" y="120" type="line"/>
      <point x="253" y="120" type="line"/>
    </contour>
    <component base="behDotless-ar.init"/>
    <component base="connection_r" xOffset="322"/>
  </outline>
</glyph>
<glyph name="caron.cap" format="2">
  <advance width="268"/>
  <outline>
    <contour>
      <point x="88" y="765" type="line"/>
      <point x="205" y="765" type="line"/>
      <point x="339" y="914" type="line"/>
      <point x="197" y="914" type="line"/>
      <point x="148" y="858" type="line"/>
      <point x="96" y="914" type="line"/>
      <point x="-46" y="914" type="line"/>
    </contour>
  </outline>
</glyph>
<glyph name="connection_r" format="2">
  <advance width="50"/>
  <outline>
    <contour>
      <point x="50" y="0" type="line"/>
      <point x="66" y="0"/>
      <point x="70" y="23"/>
      <point x="70" y="60" type="curve" smooth="yes"/>
      <point x="70" y="97"/>
      <point x="66" y="120"/>
      <point x="50" y="120" type="curve"/>
    </contour>
  </outline>
</glyph>
<glyph name="eight.pnum" format="2">
  <advance width="502"/>
  <outline>
    <contour>
      <point x="251" y="-10" type="curve" smooth="yes"/>
      <point x="367" y="-10"/>
      <point x="462" y="33"/>
      <point x="462" y="136" type="curve" smooth="yes"/>
      <point x="462" y="214"/>
      <point x="426" y="236"/>
      <point x="386" y="261" type="curve"/>
      <point x="418" y="281"/>
      <point x="450" y="310"/>
      <point x="450" y="368" type="curve" smooth="yes"/>
      <point x="450" y="468"/>
      <point x="369" y="509"/>
      <point x="251" y="509" type="curve" smooth="yes"/>
      <point x="133" y="509"/>
      <point x="52" y="468"/>
      <point x="52" y="368" type="curve" smooth="yes"/>
      <point x="52" y="309"/>
      <point x="84" y="281"/>
      <point x="116" y="261" type="curve"/>
      <point x="76" y="238"/>
      <point x="40" y="206"/>
      <point x="40" y="136" type="curve" smooth="yes"/>
      <point x="40" y="33"/>
      <point x="135" y="-10"/>
    </contour>
    <contour>
      <point x="251" y="98" type="curve" smooth="yes"/>
      <point x="199" y="98"/>
      <point x="165" y="113"/>
      <point x="165" y="148" type="curve" smooth="yes"/>
      <point x="165" y="179"/>
      <point x="185" y="194"/>
      <point x="221" y="207" type="curve"/>
      <point x="281" y="207" type="line"/>
      <point x="317" y="195"/>
      <point x="337" y="180"/>
      <point x="337" y="148" type="curve" smooth="yes"/>
      <point x="337" y="113"/>
      <point x="303" y="98"/>
    </contour>
    <contour>
      <point x="221" y="302" type="line"/>
      <point x="195" y="312"/>
      <point x="177" y="325"/>
      <point x="177" y="357" type="curve" smooth="yes"/>
      <point x="177" y="378"/>
      <point x="196" y="401"/>
      <point x="251" y="401" type="curve" smooth="yes"/>
      <point x="306" y="401"/>
      <point x="325" y="379"/>
      <point x="325" y="358" type="curve" smooth="yes"/>
      <point x="325" y="326"/>
      <point x="307" y="311"/>
      <point x="281" y="302" type="curve"/>
    </contour>
  </outline>
</glyph>
<glyph name="exclamdown.cap" format="2">
  <advance width="280"/>
  <outline>
    <contour>
      <point x="199" y="431" type="line"/>
      <point x="81" y="431" type="line"/>
      <point x="67" y="1" type="line"/>
      <point x="212" y="1" type="line"/>
    </contour>
    <contour>
      <point x="212" y="681" type="line"/>
      <point x="68" y="681" type="line"/>
      <point x="68" y="520" type="line"/>
      <point x="212" y="520" type="line"/>
    </contour>
  </outline>
</glyph>
<glyph name="fehDotless-ar.fina" format="2">
  <advance width="1090"/>
  <outline>
    <contour>
      <point x="971" y="0" type="line"/>
      <point x="1090" y="0" type="line"/>
      <point x="1090" y="120" type="line"/>
      <point x="971" y="120" type="line"/>
    </contour>
    <component base="fehDotless-ar"/>
    <component base="connection_r" xOffset="1040"/>
  </outline>
</glyph>
<glyph name="fehDotless-ar.init" format="2">
  <advance width="627"/>
  <anchor x="349" y="-100" name="bottom"/>
  <anchor x="349" y="573" name="top"/>
  <outline>
    <contour>
      <point x="0" y="0" type="line"/>
      <point x="557" y="0" type="line"/>
      <point x="557" y="500" type="line"/>
      <point x="315" y="500" type="line" smooth="yes"/>
      <point x="140" y="500"/>
      <point x="92" y="422"/>
      <point x="92" y="250" type="curve" smooth="yes"/>
      <point x="92" y="78"/>
      <point x="140" y="0"/>
      <point x="315" y="0" type="curve"/>
      <point x="315" y="120" type="line"/>
      <point x="236" y="120"/>
      <point x="226" y="125"/>
      <point x="226" y="250" type="curve" smooth="yes"/>
      <point x="226" y="375"/>
      <point x="236" y="380"/>
      <point x="315" y="380" type="curve" smooth="yes"/>
      <point x="497" y="380" type="line"/>
      <point x="423" y="440" type="line"/>
      <point x="423" y="60" type="line"/>
      <point x="497" y="120" type="line"/>
      <point x="0" y="120" type="line"/>
    </contour>
    <component base="connection_l"/>
  </outline>
</glyph>
<glyph name="fehDotless-ar.medi" format="2">
  <advance width="676"/>
  <outline>
    <contour>
      <point x="557" y="0" type="line"/>
      <point x="676" y="0" type="line"/>
      <point x="676" y="120" type="line"/>
      <point x="557" y="120" type="line"/>
    </contour>
    <component base="fehDotless-ar.init"/>
    <component base="connection_r" xOffset="626"/>
  </outline>
</glyph>
<glyph name="five.pnum" format="2">
  <advance width="506"/>
  <outline>
    <contour>
      <point x="257" y="-9" type="curve" smooth="yes"/>
      <point x="398" y="-9"/>
      <point x="469" y="59"/>
      <point x="469" y="163" type="curve" smooth="yes"/>
      <point x="469" y="267"/>
      <point x="398" y="323"/>
      <point x="267" y="323" type="curve" smooth="yes"/>
      <point x="233" y="323"/>
      <point x="195" y="313"/>
      <point x="176" y="305" type="curve"/>
      <point x="188" y="372" type="line"/>
      <point x="449" y="372" type="line"/>
      <point x="449" y="504" type="line"/>
      <point x="74" y="504" type="line"/>
      <point x="52" y="203" type="line"/>
      <point x="151" y="184" type="line"/>
      <point x="176" y="193"/>
      <point x="219" y="205"/>
      <point x="249" y="205" type="curve" smooth="yes"/>
      <point x="302" y="205"/>
      <point x="331" y="192"/>
      <point x="331" y="155" type="curve" smooth="yes"/>
      <point x="331" y="122"/>
      <point x="300" y="113"/>
      <point x="252" y="113" type="curve" smooth="yes"/>
      <point x="198" y="113"/>
      <point x="106" y="127"/>
      <point x="52" y="137" type="curve"/>
      <point x="37" y="23" type="line"/>
      <point x="93" y="9"/>
      <point x="192" y="-9"/>
    </contour>
  </outline>
</glyph>
<glyph name="hah-ar.alt" format="2">
  <advance width="595"/>
  <anchor x="270" y="-400" name="bottom"/>
  <anchor x="359" y="-102" name="center"/>
  <anchor x="270" y="573" name="top"/>
  <outline>
    <contour>
      <point x="40" y="-105" type="curve" smooth="yes"/>
      <point x="40" y="-247"/>
      <point x="146" y="-332"/>
      <point x="310" y="-332" type="curve" smooth="yes"/>
      <point x="329" y="-332"/>
      <point x="348" y="-331"/>
      <point x="373" y="-328" type="curve"/>
      <point x="351" y="-211" type="line"/>
      <point x="336" y="-212"/>
      <point x="323" y="-212"/>
      <point x="312" y="-212" type="curve" smooth="yes"/>
      <point x="211" y="-212"/>
      <point x="174" y="-174"/>
      <point x="174" y="-106" type="curve" smooth="yes"/>
      <point x="174" y="-38"/>
      <point x="211" y="0"/>
      <point x="312" y="0" type="curve" smooth="yes"/>
      <point x="535" y="0" type="line"/>
      <point x="535" y="273" type="line" smooth="yes"/>
      <point x="535" y="415"/>
      <point x="426" y="500"/>
      <point x="270" y="500" type="curve" smooth="yes"/>
      <point x="214" y="500"/>
      <point x="155" y="490"/>
      <point x="96" y="474" type="curve"/>
      <point x="110" y="365" type="line"/>
      <point x="153" y="371"/>
      <point x="245" y="380"/>
      <point x="270" y="380" type="curve" smooth="yes"/>
      <point x="359" y="380"/>
      <point x="401" y="344"/>
      <point x="401" y="273" type="curve" smooth="yes"/>
      <point x="401" y="120" type="line"/>
      <point x="312" y="120" type="line" smooth="yes"/>
      <point x="145" y="120"/>
      <point x="40" y="35"/>
    </contour>
  </outline>
</glyph>
<glyph name="macron.cap" format="2">
  <advance width="268"/>
  <outline>
    <contour>
      <point x="-25" y="782" type="line"/>
      <point x="322" y="782" type="line"/>
      <point x="322" y="880" type="line"/>
      <point x="-25" y="880" type="line"/>
    </contour>
  </outline>
</glyph>
<glyph name="parenright.cap" format="2">
  <advance width="308"/>
  <outline>
    <contour>
      <point x="154" y="785" type="curve"/>
      <point x="27" y="785" type="line"/>
      <point x="68" y="687"/>
      <point x="122" y="504"/>
      <point x="122" y="359" type="curve" smooth="yes"/>
      <point x="122" y="214"/>
      <point x="68" y="17"/>
      <point x="27" y="-90" type="curve"/>
      <point x="154" y="-90" type="line"/>
      <point x="204" y="0"/>
      <point x="270" y="185"/>
      <point x="270" y="359" type="curve" smooth="yes"/>
      <point x="270" y="533"/>
      <point x="204" y="705"/>
    </contour>
  </outline>
</glyph>
<glyph name="six.pnum" format="2">
  <advance width="511"/>
  <outline>
    <contour>
      <point x="253" y="-10" type="curve" smooth="yes"/>
      <point x="382" y="-10"/>
      <point x="478" y="49"/>
      <point x="478" y="157" type="curve" smooth="yes"/>
      <point x="478" y="279"/>
      <point x="401" y="324"/>
      <point x="286" y="324" type="curve" smooth="yes"/>
      <point x="245" y="324"/>
      <point x="196" y="309"/>
      <point x="166" y="297" type="curve"/>
      <point x="166" y="376"/>
      <point x="210" y="399"/>
      <point x="269" y="399" type="curve" smooth="yes"/>
      <point x="316" y="399"/>
      <point x="395" y="394"/>
      <point x="441" y="390" type="curve"/>
      <point x="450" y="494" type="line"/>
      <point x="413" y="500"/>
      <point x="338" y="509"/>
      <point x="269" y="509" type="curve" smooth="yes"/>
      <point x="147" y="509"/>
      <point x="41" y="444"/>
      <point x="41" y="254" type="curve" smooth="yes"/>
      <point x="41" y="63"/>
      <point x="116" y="-10"/>
    </contour>
    <contour>
      <point x="263" y="100" type="curve" smooth="yes"/>
      <point x="203" y="100"/>
      <point x="168" y="132"/>
      <point x="166" y="195" type="curve"/>
      <point x="191" y="200"/>
      <point x="236" y="207"/>
      <point x="265" y="207" type="curve" smooth="yes"/>
      <point x="316" y="207"/>
      <point x="353" y="196"/>
      <point x="353" y="157" type="curve" smooth="yes"/>
      <point x="353" y="112"/>
      <point x="305" y="100"/>
    </contour>
  </outline>
</glyph>
<glyph name="three.pnum" format="2">
  <advance width="481"/>
  <outline>
    <contour>
      <point x="228" y="-8" type="curve" smooth="yes"/>
      <point x="369" y="-8"/>
      <point x="441" y="43"/>
      <point x="441" y="142" type="curve" smooth="yes"/>
      <point x="441" y="222"/>
      <point x="394" y="252"/>
      <point x="362" y="267" type="curve"/>
      <point x="393" y="285"/>
      <point x="426" y="316"/>
      <point x="426" y="381" type="curve" smooth="yes"/>
      <point x="426" y="470"/>
      <point x="365" y="510"/>
      <point x="247" y="510" type="curve" smooth="yes"/>
      <point x="165" y="510"/>
      <point x="83" y="491"/>
      <point x="36" y="474" type="curve"/>
      <point x="45" y="372" type="line"/>
      <point x="86" y="380"/>
      <point x="165" y="390"/>
      <point x="222" y="390" type="curve" smooth="yes"/>
      <point x="278" y="390"/>
      <point x="301" y="379"/>
      <point x="301" y="350" type="curve" smooth="yes"/>
      <point x="301" y="317"/>
      <point x="270" y="307"/>
      <point x="237" y="307" type="curve" smooth="yes"/>
      <point x="106" y="307" type="line"/>
      <point x="106" y="197" type="line"/>
      <point x="238" y="197" type="line" smooth="yes"/>
      <point x="286" y="197"/>
      <point x="316" y="190"/>
      <point x="316" y="156" type="curve" smooth="yes"/>
      <point x="316" y="126"/>
      <point x="294" y="116"/>
      <point x="234" y="116" type="curve" smooth="yes"/>
      <point x="187" y="116"/>
      <point x="98" y="122"/>
      <point x="51" y="127" type="curve"/>
      <point x="36" y="13" type="line"/>
      <point x="123" y="-1"/>
      <point x="176" y="-8"/>
    </contour>
  </outline>
</glyph>
<glyph name="tilde.cap" format="2">
  <advance width="268"/>
  <outline>
    <contour>
      <point x="238" y="758" type="curve" smooth="yes"/>
      <point x="277" y="758"/>
      <point x="322" y="794"/>
      <point x="345" y="821" type="curve"/>
      <point x="316" y="918" type="line"/>
      <point x="292" y="900"/>
      <point x="253" y="876"/>
      <point x="234" y="876" type="curve" smooth="yes"/>
      <point x="223" y="876"/>
      <point x="203" y="884"/>
      <point x="180" y="892" type="curve"/>
      <point x="146" y="906"/>
      <point x="103" y="922"/>
      <point x="67" y="922" type="curve" smooth="yes"/>
      <point x="28" y="922"/>
      <point x="-17" y="886"/>
      <point x="-40" y="858" type="curve"/>
      <point x="-11" y="762" type="line"/>
      <point x="11" y="780"/>
      <point x="49" y="804"/>
      <point x="69" y="804" type="curve" smooth="yes"/>
      <point x="84" y="804"/>
      <point x="108" y="795"/>
      <point x="136" y="785" type="curve" smooth="yes"/>
      <point x="170" y="772"/>
      <point x="209" y="758"/>
    </contour>
  </outline>
</glyph>
<glyph name="zero.slash" format="2">
  <advance width="560"/>
  <outline>
    <contour>
      <point x="190" y="28" type="line"/>
      <point x="214" y="28" type="line"/>
      <point x="231" y="65" type="line"/>
      <point x="207" y="65" type="line"/>
    </contour>
    <contour>
      <point x="249" y="28" type="line"/>
      <point x="273" y="28" type="line"/>
      <point x="273" y="62" type="line"/>
      <point x="249" y="62" type="line"/>
    </contour>
    <contour>
      <point x="273" y="598" type="line"/>
      <point x="297" y="598" type="line"/>
      <point x="297" y="632" type="line"/>
      <point x="273" y="632" type="line"/>
    </contour>
    <contour>
      <point x="319" y="594" type="line"/>
      <point x="343" y="594" type="line"/>
      <point x="360" y="632" type="line"/>
      <point x="336" y="632" type="line"/>
    </contour>
    <component base="period" xScale="0.4" yScale="0.6" xOffset="229" yOffset="275"/>
    <component base="zero"/>
  </outline>
</glyph>
